M48
INCH,TZ
T1C0.0394
%
G90
G05
T1
X23000Y-22000
X23000Y-23000
X23000Y-24000
X23000Y-25000
X23000Y-26000
X23000Y-27000
X23000Y-28000
X26000Y-19000
X26000Y-20000
X26000Y-21000
X26000Y-22000
X26000Y-23000
X26000Y-24000
X26000Y-25000
X26000Y-26000
X26000Y-27000
X26000Y-28000
X26000Y-29000
X26000Y-30000
X26000Y-31000
X26000Y-32000
X26000Y-33000
X29000Y-16000
X30000Y-16000
X32000Y-19000
X32000Y-20000
X32000Y-21000
X32000Y-22000
X32000Y-23000
X32000Y-24000
X32000Y-25000
X32000Y-26000
X32000Y-27000
X32000Y-28000
X32000Y-29000
X32000Y-30000
X32000Y-31000
X32000Y-32000
X32000Y-33000
X34000Y-30000
X34000Y-31000
X34000Y-32000
X37000Y-17000
X37000Y-18000
X37000Y-19000
X37000Y-20000
X37000Y-21000
X37000Y-22000
X37000Y-23000
X37000Y-24000
X37000Y-27000
X37000Y-28000
X37000Y-29000
X37000Y-30000
X37000Y-31000
X37000Y-32000
X37000Y-33000
X37000Y-34000
M30
