G04 #@! TF.GenerationSoftware,KiCad,Pcbnew,7.0.10*
G04 #@! TF.CreationDate,2024-02-28T18:16:07-05:00*
G04 #@! TF.ProjectId,ApolloAvionics,41706f6c-6c6f-4417-9669-6f6e6963732e,rev?*
G04 #@! TF.SameCoordinates,Original*
G04 #@! TF.FileFunction,Legend,Top*
G04 #@! TF.FilePolarity,Positive*
%FSLAX46Y46*%
G04 Gerber Fmt 4.6, Leading zero omitted, Abs format (unit mm)*
G04 Created by KiCad (PCBNEW 7.0.10) date 2024-02-28 18:16:07*
%MOMM*%
%LPD*%
G01*
G04 APERTURE LIST*
%ADD10C,0.150000*%
%ADD11C,0.120000*%
G04 APERTURE END LIST*
D10*
X56753333Y-53041009D02*
X57086666Y-53041009D01*
X57229523Y-53564819D02*
X56753333Y-53564819D01*
X56753333Y-53564819D02*
X56753333Y-52564819D01*
X56753333Y-52564819D02*
X57229523Y-52564819D01*
X57610476Y-53517200D02*
X57753333Y-53564819D01*
X57753333Y-53564819D02*
X57991428Y-53564819D01*
X57991428Y-53564819D02*
X58086666Y-53517200D01*
X58086666Y-53517200D02*
X58134285Y-53469580D01*
X58134285Y-53469580D02*
X58181904Y-53374342D01*
X58181904Y-53374342D02*
X58181904Y-53279104D01*
X58181904Y-53279104D02*
X58134285Y-53183866D01*
X58134285Y-53183866D02*
X58086666Y-53136247D01*
X58086666Y-53136247D02*
X57991428Y-53088628D01*
X57991428Y-53088628D02*
X57800952Y-53041009D01*
X57800952Y-53041009D02*
X57705714Y-52993390D01*
X57705714Y-52993390D02*
X57658095Y-52945771D01*
X57658095Y-52945771D02*
X57610476Y-52850533D01*
X57610476Y-52850533D02*
X57610476Y-52755295D01*
X57610476Y-52755295D02*
X57658095Y-52660057D01*
X57658095Y-52660057D02*
X57705714Y-52612438D01*
X57705714Y-52612438D02*
X57800952Y-52564819D01*
X57800952Y-52564819D02*
X58039047Y-52564819D01*
X58039047Y-52564819D02*
X58181904Y-52612438D01*
X59181904Y-53469580D02*
X59134285Y-53517200D01*
X59134285Y-53517200D02*
X58991428Y-53564819D01*
X58991428Y-53564819D02*
X58896190Y-53564819D01*
X58896190Y-53564819D02*
X58753333Y-53517200D01*
X58753333Y-53517200D02*
X58658095Y-53421961D01*
X58658095Y-53421961D02*
X58610476Y-53326723D01*
X58610476Y-53326723D02*
X58562857Y-53136247D01*
X58562857Y-53136247D02*
X58562857Y-52993390D01*
X58562857Y-52993390D02*
X58610476Y-52802914D01*
X58610476Y-52802914D02*
X58658095Y-52707676D01*
X58658095Y-52707676D02*
X58753333Y-52612438D01*
X58753333Y-52612438D02*
X58896190Y-52564819D01*
X58896190Y-52564819D02*
X58991428Y-52564819D01*
X58991428Y-52564819D02*
X59134285Y-52612438D01*
X59134285Y-52612438D02*
X59181904Y-52660057D01*
X60134285Y-53564819D02*
X59562857Y-53564819D01*
X59848571Y-53564819D02*
X59848571Y-52564819D01*
X59848571Y-52564819D02*
X59753333Y-52707676D01*
X59753333Y-52707676D02*
X59658095Y-52802914D01*
X59658095Y-52802914D02*
X59562857Y-52850533D01*
X72945714Y-43349104D02*
X73421904Y-43349104D01*
X72850476Y-43634819D02*
X73183809Y-42634819D01*
X73183809Y-42634819D02*
X73517142Y-43634819D01*
X74374285Y-43634819D02*
X73802857Y-43634819D01*
X74088571Y-43634819D02*
X74088571Y-42634819D01*
X74088571Y-42634819D02*
X73993333Y-42777676D01*
X73993333Y-42777676D02*
X73898095Y-42872914D01*
X73898095Y-42872914D02*
X73802857Y-42920533D01*
X72398095Y-83274819D02*
X72398095Y-84084342D01*
X72398095Y-84084342D02*
X72445714Y-84179580D01*
X72445714Y-84179580D02*
X72493333Y-84227200D01*
X72493333Y-84227200D02*
X72588571Y-84274819D01*
X72588571Y-84274819D02*
X72779047Y-84274819D01*
X72779047Y-84274819D02*
X72874285Y-84227200D01*
X72874285Y-84227200D02*
X72921904Y-84179580D01*
X72921904Y-84179580D02*
X72969523Y-84084342D01*
X72969523Y-84084342D02*
X72969523Y-83274819D01*
X73398095Y-84227200D02*
X73540952Y-84274819D01*
X73540952Y-84274819D02*
X73779047Y-84274819D01*
X73779047Y-84274819D02*
X73874285Y-84227200D01*
X73874285Y-84227200D02*
X73921904Y-84179580D01*
X73921904Y-84179580D02*
X73969523Y-84084342D01*
X73969523Y-84084342D02*
X73969523Y-83989104D01*
X73969523Y-83989104D02*
X73921904Y-83893866D01*
X73921904Y-83893866D02*
X73874285Y-83846247D01*
X73874285Y-83846247D02*
X73779047Y-83798628D01*
X73779047Y-83798628D02*
X73588571Y-83751009D01*
X73588571Y-83751009D02*
X73493333Y-83703390D01*
X73493333Y-83703390D02*
X73445714Y-83655771D01*
X73445714Y-83655771D02*
X73398095Y-83560533D01*
X73398095Y-83560533D02*
X73398095Y-83465295D01*
X73398095Y-83465295D02*
X73445714Y-83370057D01*
X73445714Y-83370057D02*
X73493333Y-83322438D01*
X73493333Y-83322438D02*
X73588571Y-83274819D01*
X73588571Y-83274819D02*
X73826666Y-83274819D01*
X73826666Y-83274819D02*
X73969523Y-83322438D01*
X74731428Y-83751009D02*
X74874285Y-83798628D01*
X74874285Y-83798628D02*
X74921904Y-83846247D01*
X74921904Y-83846247D02*
X74969523Y-83941485D01*
X74969523Y-83941485D02*
X74969523Y-84084342D01*
X74969523Y-84084342D02*
X74921904Y-84179580D01*
X74921904Y-84179580D02*
X74874285Y-84227200D01*
X74874285Y-84227200D02*
X74779047Y-84274819D01*
X74779047Y-84274819D02*
X74398095Y-84274819D01*
X74398095Y-84274819D02*
X74398095Y-83274819D01*
X74398095Y-83274819D02*
X74731428Y-83274819D01*
X74731428Y-83274819D02*
X74826666Y-83322438D01*
X74826666Y-83322438D02*
X74874285Y-83370057D01*
X74874285Y-83370057D02*
X74921904Y-83465295D01*
X74921904Y-83465295D02*
X74921904Y-83560533D01*
X74921904Y-83560533D02*
X74874285Y-83655771D01*
X74874285Y-83655771D02*
X74826666Y-83703390D01*
X74826666Y-83703390D02*
X74731428Y-83751009D01*
X74731428Y-83751009D02*
X74398095Y-83751009D01*
X92503809Y-40341009D02*
X92646666Y-40388628D01*
X92646666Y-40388628D02*
X92694285Y-40436247D01*
X92694285Y-40436247D02*
X92741904Y-40531485D01*
X92741904Y-40531485D02*
X92741904Y-40674342D01*
X92741904Y-40674342D02*
X92694285Y-40769580D01*
X92694285Y-40769580D02*
X92646666Y-40817200D01*
X92646666Y-40817200D02*
X92551428Y-40864819D01*
X92551428Y-40864819D02*
X92170476Y-40864819D01*
X92170476Y-40864819D02*
X92170476Y-39864819D01*
X92170476Y-39864819D02*
X92503809Y-39864819D01*
X92503809Y-39864819D02*
X92599047Y-39912438D01*
X92599047Y-39912438D02*
X92646666Y-39960057D01*
X92646666Y-39960057D02*
X92694285Y-40055295D01*
X92694285Y-40055295D02*
X92694285Y-40150533D01*
X92694285Y-40150533D02*
X92646666Y-40245771D01*
X92646666Y-40245771D02*
X92599047Y-40293390D01*
X92599047Y-40293390D02*
X92503809Y-40341009D01*
X92503809Y-40341009D02*
X92170476Y-40341009D01*
X93170476Y-40864819D02*
X93170476Y-39864819D01*
X93170476Y-39864819D02*
X93503809Y-40579104D01*
X93503809Y-40579104D02*
X93837142Y-39864819D01*
X93837142Y-39864819D02*
X93837142Y-40864819D01*
X94313333Y-40864819D02*
X94313333Y-39864819D01*
X94313333Y-39864819D02*
X94694285Y-39864819D01*
X94694285Y-39864819D02*
X94789523Y-39912438D01*
X94789523Y-39912438D02*
X94837142Y-39960057D01*
X94837142Y-39960057D02*
X94884761Y-40055295D01*
X94884761Y-40055295D02*
X94884761Y-40198152D01*
X94884761Y-40198152D02*
X94837142Y-40293390D01*
X94837142Y-40293390D02*
X94789523Y-40341009D01*
X94789523Y-40341009D02*
X94694285Y-40388628D01*
X94694285Y-40388628D02*
X94313333Y-40388628D01*
X95837142Y-40864819D02*
X95265714Y-40864819D01*
X95551428Y-40864819D02*
X95551428Y-39864819D01*
X95551428Y-39864819D02*
X95456190Y-40007676D01*
X95456190Y-40007676D02*
X95360952Y-40102914D01*
X95360952Y-40102914D02*
X95265714Y-40150533D01*
X84669524Y-73837200D02*
X84812381Y-73884819D01*
X84812381Y-73884819D02*
X85050476Y-73884819D01*
X85050476Y-73884819D02*
X85145714Y-73837200D01*
X85145714Y-73837200D02*
X85193333Y-73789580D01*
X85193333Y-73789580D02*
X85240952Y-73694342D01*
X85240952Y-73694342D02*
X85240952Y-73599104D01*
X85240952Y-73599104D02*
X85193333Y-73503866D01*
X85193333Y-73503866D02*
X85145714Y-73456247D01*
X85145714Y-73456247D02*
X85050476Y-73408628D01*
X85050476Y-73408628D02*
X84860000Y-73361009D01*
X84860000Y-73361009D02*
X84764762Y-73313390D01*
X84764762Y-73313390D02*
X84717143Y-73265771D01*
X84717143Y-73265771D02*
X84669524Y-73170533D01*
X84669524Y-73170533D02*
X84669524Y-73075295D01*
X84669524Y-73075295D02*
X84717143Y-72980057D01*
X84717143Y-72980057D02*
X84764762Y-72932438D01*
X84764762Y-72932438D02*
X84860000Y-72884819D01*
X84860000Y-72884819D02*
X85098095Y-72884819D01*
X85098095Y-72884819D02*
X85240952Y-72932438D01*
X86240952Y-73884819D02*
X85907619Y-73408628D01*
X85669524Y-73884819D02*
X85669524Y-72884819D01*
X85669524Y-72884819D02*
X86050476Y-72884819D01*
X86050476Y-72884819D02*
X86145714Y-72932438D01*
X86145714Y-72932438D02*
X86193333Y-72980057D01*
X86193333Y-72980057D02*
X86240952Y-73075295D01*
X86240952Y-73075295D02*
X86240952Y-73218152D01*
X86240952Y-73218152D02*
X86193333Y-73313390D01*
X86193333Y-73313390D02*
X86145714Y-73361009D01*
X86145714Y-73361009D02*
X86050476Y-73408628D01*
X86050476Y-73408628D02*
X85669524Y-73408628D01*
X86526667Y-72884819D02*
X86860000Y-73884819D01*
X86860000Y-73884819D02*
X87193333Y-72884819D01*
X88050476Y-73884819D02*
X87479048Y-73884819D01*
X87764762Y-73884819D02*
X87764762Y-72884819D01*
X87764762Y-72884819D02*
X87669524Y-73027676D01*
X87669524Y-73027676D02*
X87574286Y-73122914D01*
X87574286Y-73122914D02*
X87479048Y-73170533D01*
X70821009Y-41425714D02*
X70868628Y-41282857D01*
X70868628Y-41282857D02*
X70916247Y-41235238D01*
X70916247Y-41235238D02*
X71011485Y-41187619D01*
X71011485Y-41187619D02*
X71154342Y-41187619D01*
X71154342Y-41187619D02*
X71249580Y-41235238D01*
X71249580Y-41235238D02*
X71297200Y-41282857D01*
X71297200Y-41282857D02*
X71344819Y-41378095D01*
X71344819Y-41378095D02*
X71344819Y-41759047D01*
X71344819Y-41759047D02*
X70344819Y-41759047D01*
X70344819Y-41759047D02*
X70344819Y-41425714D01*
X70344819Y-41425714D02*
X70392438Y-41330476D01*
X70392438Y-41330476D02*
X70440057Y-41282857D01*
X70440057Y-41282857D02*
X70535295Y-41235238D01*
X70535295Y-41235238D02*
X70630533Y-41235238D01*
X70630533Y-41235238D02*
X70725771Y-41282857D01*
X70725771Y-41282857D02*
X70773390Y-41330476D01*
X70773390Y-41330476D02*
X70821009Y-41425714D01*
X70821009Y-41425714D02*
X70821009Y-41759047D01*
X70344819Y-40901904D02*
X70344819Y-40330476D01*
X71344819Y-40616190D02*
X70344819Y-40616190D01*
X71344819Y-39473333D02*
X71344819Y-40044761D01*
X71344819Y-39759047D02*
X70344819Y-39759047D01*
X70344819Y-39759047D02*
X70487676Y-39854285D01*
X70487676Y-39854285D02*
X70582914Y-39949523D01*
X70582914Y-39949523D02*
X70630533Y-40044761D01*
X92146667Y-66264819D02*
X92146667Y-65264819D01*
X92146667Y-65264819D02*
X92480000Y-65979104D01*
X92480000Y-65979104D02*
X92813333Y-65264819D01*
X92813333Y-65264819D02*
X92813333Y-66264819D01*
X93289524Y-66264819D02*
X93289524Y-65264819D01*
X93289524Y-65264819D02*
X93670476Y-65264819D01*
X93670476Y-65264819D02*
X93765714Y-65312438D01*
X93765714Y-65312438D02*
X93813333Y-65360057D01*
X93813333Y-65360057D02*
X93860952Y-65455295D01*
X93860952Y-65455295D02*
X93860952Y-65598152D01*
X93860952Y-65598152D02*
X93813333Y-65693390D01*
X93813333Y-65693390D02*
X93765714Y-65741009D01*
X93765714Y-65741009D02*
X93670476Y-65788628D01*
X93670476Y-65788628D02*
X93289524Y-65788628D01*
X94289524Y-65264819D02*
X94289524Y-66074342D01*
X94289524Y-66074342D02*
X94337143Y-66169580D01*
X94337143Y-66169580D02*
X94384762Y-66217200D01*
X94384762Y-66217200D02*
X94480000Y-66264819D01*
X94480000Y-66264819D02*
X94670476Y-66264819D01*
X94670476Y-66264819D02*
X94765714Y-66217200D01*
X94765714Y-66217200D02*
X94813333Y-66169580D01*
X94813333Y-66169580D02*
X94860952Y-66074342D01*
X94860952Y-66074342D02*
X94860952Y-65264819D01*
X95860952Y-66264819D02*
X95289524Y-66264819D01*
X95575238Y-66264819D02*
X95575238Y-65264819D01*
X95575238Y-65264819D02*
X95480000Y-65407676D01*
X95480000Y-65407676D02*
X95384762Y-65502914D01*
X95384762Y-65502914D02*
X95289524Y-65550533D01*
D11*
G04 #@! TO.C,ESC1*
X57090000Y-57150000D02*
X57090000Y-72450000D01*
X57090000Y-57150000D02*
X59750000Y-57150000D01*
X57090000Y-72450000D02*
X59750000Y-72450000D01*
X58420000Y-54550000D02*
X59750000Y-54550000D01*
X59750000Y-54550000D02*
X59750000Y-55880000D01*
X59750000Y-57150000D02*
X59750000Y-72450000D01*
G04 #@! TO.C,A1*
X64640000Y-44320000D02*
X64640000Y-46990000D01*
X64640000Y-49530000D02*
X64640000Y-87760000D01*
X64640000Y-87760000D02*
X69720000Y-87760000D01*
X67310000Y-46990000D02*
X64640000Y-46990000D01*
X67310000Y-49530000D02*
X64640000Y-49530000D01*
X67310000Y-49530000D02*
X67310000Y-46990000D01*
X67310000Y-49530000D02*
X67310000Y-85090000D01*
X67310000Y-85090000D02*
X64640000Y-85090000D01*
X69720000Y-79880000D02*
X77600000Y-79880000D01*
X69720000Y-90300000D02*
X69720000Y-79880000D01*
X77600000Y-79880000D02*
X77600000Y-90300000D01*
X77600000Y-90300000D02*
X69720000Y-90300000D01*
X80010000Y-46990000D02*
X80010000Y-85090000D01*
X80010000Y-46990000D02*
X82680000Y-46990000D01*
X80010000Y-85090000D02*
X82680000Y-85090000D01*
X82680000Y-44320000D02*
X64640000Y-44320000D01*
X82680000Y-87760000D02*
X77600000Y-87760000D01*
X82680000Y-87760000D02*
X82680000Y-44320000D01*
G04 #@! TO.C,BMP1*
X92650000Y-44450000D02*
X92650000Y-62290000D01*
X92650000Y-44450000D02*
X95310000Y-44450000D01*
X92650000Y-62290000D02*
X95310000Y-62290000D01*
X93980000Y-41850000D02*
X95310000Y-41850000D01*
X95310000Y-41850000D02*
X95310000Y-43180000D01*
X95310000Y-44450000D02*
X95310000Y-62290000D01*
G04 #@! TO.C,SRV1*
X85030000Y-77470000D02*
X85030000Y-82610000D01*
X85030000Y-77470000D02*
X87690000Y-77470000D01*
X85030000Y-82610000D02*
X87690000Y-82610000D01*
X86360000Y-74870000D02*
X87690000Y-74870000D01*
X87690000Y-74870000D02*
X87690000Y-76200000D01*
X87690000Y-77470000D02*
X87690000Y-82610000D01*
G04 #@! TO.C,BT1*
X74930000Y-41970000D02*
X77530000Y-41970000D01*
X74930000Y-41970000D02*
X74930000Y-39310000D01*
X77530000Y-41970000D02*
X77530000Y-39310000D01*
X72330000Y-40640000D02*
X72330000Y-39310000D01*
X72330000Y-39310000D02*
X73660000Y-39310000D01*
X74930000Y-39310000D02*
X77530000Y-39310000D01*
G04 #@! TO.C,MPU1*
X92650000Y-69850000D02*
X92650000Y-87690000D01*
X92650000Y-69850000D02*
X95310000Y-69850000D01*
X92650000Y-87690000D02*
X95310000Y-87690000D01*
X93980000Y-67250000D02*
X95310000Y-67250000D01*
X95310000Y-67250000D02*
X95310000Y-68580000D01*
X95310000Y-69850000D02*
X95310000Y-87690000D01*
G04 #@! TD*
M02*
