G04 #@! TF.GenerationSoftware,KiCad,Pcbnew,7.0.10*
G04 #@! TF.CreationDate,2024-02-28T18:16:07-05:00*
G04 #@! TF.ProjectId,ApolloAvionics,41706f6c-6c6f-4417-9669-6f6e6963732e,rev?*
G04 #@! TF.SameCoordinates,Original*
G04 #@! TF.FileFunction,Copper,L1,Top*
G04 #@! TF.FilePolarity,Positive*
%FSLAX46Y46*%
G04 Gerber Fmt 4.6, Leading zero omitted, Abs format (unit mm)*
G04 Created by KiCad (PCBNEW 7.0.10) date 2024-02-28 18:16:07*
%MOMM*%
%LPD*%
G01*
G04 APERTURE LIST*
G04 #@! TA.AperFunction,ComponentPad*
%ADD10R,1.700000X1.700000*%
G04 #@! TD*
G04 #@! TA.AperFunction,ComponentPad*
%ADD11O,1.700000X1.700000*%
G04 #@! TD*
G04 #@! TA.AperFunction,ComponentPad*
%ADD12R,1.600000X1.600000*%
G04 #@! TD*
G04 #@! TA.AperFunction,ComponentPad*
%ADD13O,1.600000X1.600000*%
G04 #@! TD*
G04 #@! TA.AperFunction,Conductor*
%ADD14C,0.250000*%
G04 #@! TD*
G04 APERTURE END LIST*
D10*
G04 #@! TO.P,ESC1,1,VCC*
G04 #@! TO.N,Net-(A1-VIN)*
X58420000Y-55880000D03*
D11*
G04 #@! TO.P,ESC1,2,SGND*
G04 #@! TO.N,Net-(ESC1-SGND)*
X58420000Y-58420000D03*
G04 #@! TO.P,ESC1,3,S1*
G04 #@! TO.N,Net-(A1-D5)*
X58420000Y-60960000D03*
G04 #@! TO.P,ESC1,4,S2*
G04 #@! TO.N,Net-(A1-D6)*
X58420000Y-63500000D03*
G04 #@! TO.P,ESC1,5,S3*
G04 #@! TO.N,Net-(A1-D10)*
X58420000Y-66040000D03*
G04 #@! TO.P,ESC1,6,S4*
G04 #@! TO.N,Net-(A1-D9)*
X58420000Y-68580000D03*
G04 #@! TO.P,ESC1,7,GND*
G04 #@! TO.N,GND*
X58420000Y-71120000D03*
G04 #@! TD*
D12*
G04 #@! TO.P,A1,1,D1/TX*
G04 #@! TO.N,unconnected-(A1-D1{slash}TX-Pad1)*
X66040000Y-48260000D03*
D13*
G04 #@! TO.P,A1,2,D0/RX*
G04 #@! TO.N,unconnected-(A1-D0{slash}RX-Pad2)*
X66040000Y-50800000D03*
G04 #@! TO.P,A1,3,~{RESET}*
G04 #@! TO.N,unconnected-(A1-~{RESET}-Pad3)*
X66040000Y-53340000D03*
G04 #@! TO.P,A1,4,GND*
G04 #@! TO.N,Net-(ESC1-SGND)*
X66040000Y-55880000D03*
G04 #@! TO.P,A1,5,D2*
G04 #@! TO.N,unconnected-(A1-D2-Pad5)*
X66040000Y-58420000D03*
G04 #@! TO.P,A1,6,D3*
G04 #@! TO.N,unconnected-(A1-D3-Pad6)*
X66040000Y-60960000D03*
G04 #@! TO.P,A1,7,D4*
G04 #@! TO.N,unconnected-(A1-D4-Pad7)*
X66040000Y-63500000D03*
G04 #@! TO.P,A1,8,D5*
G04 #@! TO.N,Net-(A1-D5)*
X66040000Y-66040000D03*
G04 #@! TO.P,A1,9,D6*
G04 #@! TO.N,Net-(A1-D6)*
X66040000Y-68580000D03*
G04 #@! TO.P,A1,10,D7*
G04 #@! TO.N,unconnected-(A1-D7-Pad10)*
X66040000Y-71120000D03*
G04 #@! TO.P,A1,11,D8*
G04 #@! TO.N,unconnected-(A1-D8-Pad11)*
X66040000Y-73660000D03*
G04 #@! TO.P,A1,12,D9*
G04 #@! TO.N,Net-(A1-D9)*
X66040000Y-76200000D03*
G04 #@! TO.P,A1,13,D10*
G04 #@! TO.N,Net-(A1-D10)*
X66040000Y-78740000D03*
G04 #@! TO.P,A1,14,D11*
G04 #@! TO.N,unconnected-(A1-D11-Pad14)*
X66040000Y-81280000D03*
G04 #@! TO.P,A1,15,D12*
G04 #@! TO.N,unconnected-(A1-D12-Pad15)*
X66040000Y-83820000D03*
G04 #@! TO.P,A1,16,D13*
G04 #@! TO.N,unconnected-(A1-D13-Pad16)*
X81280000Y-83820000D03*
G04 #@! TO.P,A1,17,3V3*
G04 #@! TO.N,Net-(A1-3V3)*
X81280000Y-81280000D03*
G04 #@! TO.P,A1,18,AREF*
G04 #@! TO.N,unconnected-(A1-AREF-Pad18)*
X81280000Y-78740000D03*
G04 #@! TO.P,A1,19,A0*
G04 #@! TO.N,Net-(A1-A0)*
X81280000Y-76200000D03*
G04 #@! TO.P,A1,20,A1*
G04 #@! TO.N,unconnected-(A1-A1-Pad20)*
X81280000Y-73660000D03*
G04 #@! TO.P,A1,21,A2*
G04 #@! TO.N,unconnected-(A1-A2-Pad21)*
X81280000Y-71120000D03*
G04 #@! TO.P,A1,22,A3*
G04 #@! TO.N,unconnected-(A1-A3-Pad22)*
X81280000Y-68580000D03*
G04 #@! TO.P,A1,23,A4*
G04 #@! TO.N,Net-(A1-A4)*
X81280000Y-66040000D03*
G04 #@! TO.P,A1,24,A5*
G04 #@! TO.N,Net-(A1-A5)*
X81280000Y-63500000D03*
G04 #@! TO.P,A1,25,A6*
G04 #@! TO.N,unconnected-(A1-A6-Pad25)*
X81280000Y-60960000D03*
G04 #@! TO.P,A1,26,A7*
G04 #@! TO.N,unconnected-(A1-A7-Pad26)*
X81280000Y-58420000D03*
G04 #@! TO.P,A1,27,+5V*
G04 #@! TO.N,+5V*
X81280000Y-55880000D03*
G04 #@! TO.P,A1,28,~{RESET}*
G04 #@! TO.N,unconnected-(A1-~{RESET}-Pad28)*
X81280000Y-53340000D03*
G04 #@! TO.P,A1,29,GND*
G04 #@! TO.N,GND*
X81280000Y-50800000D03*
G04 #@! TO.P,A1,30,VIN*
G04 #@! TO.N,Net-(A1-VIN)*
X81280000Y-48260000D03*
G04 #@! TD*
D10*
G04 #@! TO.P,BMP1,1,VIN*
G04 #@! TO.N,+5V*
X93980000Y-43180000D03*
D11*
G04 #@! TO.P,BMP1,2,3Vo*
G04 #@! TO.N,unconnected-(BMP1-3Vo-Pad2)*
X93980000Y-45720000D03*
G04 #@! TO.P,BMP1,3,GND*
G04 #@! TO.N,GND*
X93980000Y-48260000D03*
G04 #@! TO.P,BMP1,4,SCL*
G04 #@! TO.N,Net-(A1-A5)*
X93980000Y-50800000D03*
G04 #@! TO.P,BMP1,5,SDO*
G04 #@! TO.N,unconnected-(BMP1-SDO-Pad5)*
X93980000Y-53340000D03*
G04 #@! TO.P,BMP1,6,SDA*
G04 #@! TO.N,Net-(A1-A4)*
X93980000Y-55880000D03*
G04 #@! TO.P,BMP1,7,CS*
G04 #@! TO.N,unconnected-(BMP1-CS-Pad7)*
X93980000Y-58420000D03*
G04 #@! TO.P,BMP1,8,INT*
G04 #@! TO.N,unconnected-(BMP1-INT-Pad8)*
X93980000Y-60960000D03*
G04 #@! TD*
D10*
G04 #@! TO.P,SRV1,1,PWM*
G04 #@! TO.N,Net-(A1-A0)*
X86360000Y-76200000D03*
D11*
G04 #@! TO.P,SRV1,2,+*
G04 #@! TO.N,Net-(A1-3V3)*
X86360000Y-78740000D03*
G04 #@! TO.P,SRV1,3,-*
G04 #@! TO.N,GND*
X86360000Y-81280000D03*
G04 #@! TD*
D10*
G04 #@! TO.P,BT1,1,+*
G04 #@! TO.N,Net-(A1-VIN)*
X73660000Y-40640000D03*
D11*
G04 #@! TO.P,BT1,2,-*
G04 #@! TO.N,GND*
X76200000Y-40640000D03*
G04 #@! TD*
D10*
G04 #@! TO.P,MPU1,1,VCC*
G04 #@! TO.N,+5V*
X93980000Y-68580000D03*
D11*
G04 #@! TO.P,MPU1,2,GND*
G04 #@! TO.N,GND*
X93980000Y-71120000D03*
G04 #@! TO.P,MPU1,3,SCL*
G04 #@! TO.N,Net-(A1-A5)*
X93980000Y-73660000D03*
G04 #@! TO.P,MPU1,4,SDA*
G04 #@! TO.N,Net-(A1-A4)*
X93980000Y-76200000D03*
G04 #@! TO.P,MPU1,5,XDA*
G04 #@! TO.N,unconnected-(MPU1-XDA-Pad5)*
X93980000Y-78740000D03*
G04 #@! TO.P,MPU1,6,XCL*
G04 #@! TO.N,unconnected-(MPU1-XCL-Pad6)*
X93980000Y-81280000D03*
G04 #@! TO.P,MPU1,7,ADO*
G04 #@! TO.N,unconnected-(MPU1-ADO-Pad7)*
X93980000Y-83820000D03*
G04 #@! TO.P,MPU1,8,INT*
G04 #@! TO.N,unconnected-(MPU1-INT-Pad8)*
X93980000Y-86360000D03*
G04 #@! TD*
D14*
G04 #@! TO.N,Net-(ESC1-SGND)*
X63500000Y-58420000D02*
X66040000Y-55880000D01*
X58420000Y-58420000D02*
X63500000Y-58420000D01*
G04 #@! TO.N,Net-(A1-D5)*
X63500000Y-66040000D02*
X66040000Y-66040000D01*
X58420000Y-60960000D02*
X63500000Y-66040000D01*
G04 #@! TO.N,Net-(A1-D6)*
X63500000Y-68580000D02*
X66040000Y-68580000D01*
X58420000Y-63500000D02*
X63500000Y-68580000D01*
G04 #@! TO.N,Net-(A1-D10)*
X63500000Y-71120000D02*
X63500000Y-76200000D01*
X63500000Y-76200000D02*
X66040000Y-78740000D01*
X58420000Y-66040000D02*
X63500000Y-71120000D01*
G04 #@! TO.N,Net-(A1-A4)*
X83820000Y-66040000D02*
X81280000Y-66040000D01*
X93980000Y-55880000D02*
X83820000Y-66040000D01*
G04 #@! TO.N,Net-(A1-A5)*
X93980000Y-50800000D02*
X81280000Y-63500000D01*
G04 #@! TO.N,Net-(A1-VIN)*
X73660000Y-43180000D02*
X83820000Y-43180000D01*
X73660000Y-43180000D02*
X73660000Y-40640000D01*
X58420000Y-53340000D02*
X71120000Y-40640000D01*
X71120000Y-40640000D02*
X73660000Y-40640000D01*
X58420000Y-55880000D02*
X58420000Y-53340000D01*
X83820000Y-48260000D02*
X81280000Y-48260000D01*
X83820000Y-43180000D02*
X83820000Y-48260000D01*
G04 #@! TD*
G04 #@! TA.AperFunction,Conductor*
G04 #@! TO.N,+5V*
G36*
X96462539Y-38120185D02*
G01*
X96508294Y-38172989D01*
X96519500Y-38224500D01*
X96519500Y-91315500D01*
X96499815Y-91382539D01*
X96447011Y-91428294D01*
X96395500Y-91439500D01*
X56004500Y-91439500D01*
X55937461Y-91419815D01*
X55891706Y-91367011D01*
X55880500Y-91315500D01*
X55880500Y-86360000D01*
X92624341Y-86360000D01*
X92644936Y-86595403D01*
X92644938Y-86595413D01*
X92706094Y-86823655D01*
X92706096Y-86823659D01*
X92706097Y-86823663D01*
X92805965Y-87037830D01*
X92805967Y-87037834D01*
X92914281Y-87192521D01*
X92941505Y-87231401D01*
X93108599Y-87398495D01*
X93205384Y-87466265D01*
X93302165Y-87534032D01*
X93302167Y-87534033D01*
X93302170Y-87534035D01*
X93516337Y-87633903D01*
X93744592Y-87695063D01*
X93932918Y-87711539D01*
X93979999Y-87715659D01*
X93980000Y-87715659D01*
X93980001Y-87715659D01*
X94019234Y-87712226D01*
X94215408Y-87695063D01*
X94443663Y-87633903D01*
X94657830Y-87534035D01*
X94851401Y-87398495D01*
X95018495Y-87231401D01*
X95154035Y-87037830D01*
X95253903Y-86823663D01*
X95315063Y-86595408D01*
X95335659Y-86360000D01*
X95315063Y-86124592D01*
X95253903Y-85896337D01*
X95154035Y-85682171D01*
X95018495Y-85488599D01*
X95018494Y-85488597D01*
X94851402Y-85321506D01*
X94851396Y-85321501D01*
X94665842Y-85191575D01*
X94622217Y-85136998D01*
X94615023Y-85067500D01*
X94646546Y-85005145D01*
X94665842Y-84988425D01*
X94719909Y-84950567D01*
X94851401Y-84858495D01*
X95018495Y-84691401D01*
X95154035Y-84497830D01*
X95253903Y-84283663D01*
X95315063Y-84055408D01*
X95335659Y-83820000D01*
X95315063Y-83584592D01*
X95253903Y-83356337D01*
X95154035Y-83142171D01*
X95018495Y-82948599D01*
X95018494Y-82948597D01*
X94851402Y-82781506D01*
X94851396Y-82781501D01*
X94665842Y-82651575D01*
X94622217Y-82596998D01*
X94615023Y-82527500D01*
X94646546Y-82465145D01*
X94665842Y-82448425D01*
X94719909Y-82410567D01*
X94851401Y-82318495D01*
X95018495Y-82151401D01*
X95154035Y-81957830D01*
X95253903Y-81743663D01*
X95315063Y-81515408D01*
X95335659Y-81280000D01*
X95315063Y-81044592D01*
X95253903Y-80816337D01*
X95154035Y-80602171D01*
X95018495Y-80408599D01*
X95018494Y-80408597D01*
X94851402Y-80241506D01*
X94851396Y-80241501D01*
X94665842Y-80111575D01*
X94622217Y-80056998D01*
X94615023Y-79987500D01*
X94646546Y-79925145D01*
X94665842Y-79908425D01*
X94719909Y-79870567D01*
X94851401Y-79778495D01*
X95018495Y-79611401D01*
X95154035Y-79417830D01*
X95253903Y-79203663D01*
X95315063Y-78975408D01*
X95335659Y-78740000D01*
X95315063Y-78504592D01*
X95253903Y-78276337D01*
X95154035Y-78062171D01*
X95018495Y-77868599D01*
X95018494Y-77868597D01*
X94851402Y-77701506D01*
X94851396Y-77701501D01*
X94665842Y-77571575D01*
X94622217Y-77516998D01*
X94615023Y-77447500D01*
X94646546Y-77385145D01*
X94665842Y-77368425D01*
X94719909Y-77330567D01*
X94851401Y-77238495D01*
X95018495Y-77071401D01*
X95154035Y-76877830D01*
X95253903Y-76663663D01*
X95315063Y-76435408D01*
X95335659Y-76200000D01*
X95315063Y-75964592D01*
X95253903Y-75736337D01*
X95154035Y-75522171D01*
X95018495Y-75328599D01*
X95018494Y-75328597D01*
X94851402Y-75161506D01*
X94851396Y-75161501D01*
X94665842Y-75031575D01*
X94622217Y-74976998D01*
X94615023Y-74907500D01*
X94646546Y-74845145D01*
X94665842Y-74828425D01*
X94719909Y-74790567D01*
X94851401Y-74698495D01*
X95018495Y-74531401D01*
X95154035Y-74337830D01*
X95253903Y-74123663D01*
X95315063Y-73895408D01*
X95335659Y-73660000D01*
X95315063Y-73424592D01*
X95253903Y-73196337D01*
X95154035Y-72982171D01*
X95018495Y-72788599D01*
X95018494Y-72788597D01*
X94851402Y-72621506D01*
X94851396Y-72621501D01*
X94665842Y-72491575D01*
X94622217Y-72436998D01*
X94615023Y-72367500D01*
X94646546Y-72305145D01*
X94665842Y-72288425D01*
X94719909Y-72250567D01*
X94851401Y-72158495D01*
X95018495Y-71991401D01*
X95154035Y-71797830D01*
X95253903Y-71583663D01*
X95315063Y-71355408D01*
X95335659Y-71120000D01*
X95315063Y-70884592D01*
X95253903Y-70656337D01*
X95154035Y-70442171D01*
X95018495Y-70248599D01*
X94896179Y-70126283D01*
X94862696Y-70064963D01*
X94867680Y-69995271D01*
X94909551Y-69939337D01*
X94940529Y-69922422D01*
X95072086Y-69873354D01*
X95072093Y-69873350D01*
X95187187Y-69787190D01*
X95187190Y-69787187D01*
X95273350Y-69672093D01*
X95273354Y-69672086D01*
X95323596Y-69537379D01*
X95323598Y-69537372D01*
X95329999Y-69477844D01*
X95330000Y-69477827D01*
X95330000Y-68830000D01*
X94413686Y-68830000D01*
X94439493Y-68789844D01*
X94480000Y-68651889D01*
X94480000Y-68508111D01*
X94439493Y-68370156D01*
X94413686Y-68330000D01*
X95330000Y-68330000D01*
X95330000Y-67682172D01*
X95329999Y-67682155D01*
X95323598Y-67622627D01*
X95323596Y-67622620D01*
X95273354Y-67487913D01*
X95273350Y-67487906D01*
X95187190Y-67372812D01*
X95187187Y-67372809D01*
X95072093Y-67286649D01*
X95072086Y-67286645D01*
X94937379Y-67236403D01*
X94937372Y-67236401D01*
X94877844Y-67230000D01*
X94230000Y-67230000D01*
X94230000Y-68144498D01*
X94122315Y-68095320D01*
X94015763Y-68080000D01*
X93944237Y-68080000D01*
X93837685Y-68095320D01*
X93730000Y-68144498D01*
X93730000Y-67230000D01*
X93082155Y-67230000D01*
X93022627Y-67236401D01*
X93022620Y-67236403D01*
X92887913Y-67286645D01*
X92887906Y-67286649D01*
X92772812Y-67372809D01*
X92772809Y-67372812D01*
X92686649Y-67487906D01*
X92686645Y-67487913D01*
X92636403Y-67622620D01*
X92636401Y-67622627D01*
X92630000Y-67682155D01*
X92630000Y-68330000D01*
X93546314Y-68330000D01*
X93520507Y-68370156D01*
X93480000Y-68508111D01*
X93480000Y-68651889D01*
X93520507Y-68789844D01*
X93546314Y-68830000D01*
X92630000Y-68830000D01*
X92630000Y-69477844D01*
X92636401Y-69537372D01*
X92636403Y-69537379D01*
X92686645Y-69672086D01*
X92686649Y-69672093D01*
X92772809Y-69787187D01*
X92772812Y-69787190D01*
X92887906Y-69873350D01*
X92887913Y-69873354D01*
X93019470Y-69922421D01*
X93075403Y-69964292D01*
X93099821Y-70029756D01*
X93084970Y-70098029D01*
X93063819Y-70126284D01*
X92941503Y-70248600D01*
X92805965Y-70442169D01*
X92805964Y-70442171D01*
X92706098Y-70656335D01*
X92706094Y-70656344D01*
X92644938Y-70884586D01*
X92644936Y-70884596D01*
X92624341Y-71119999D01*
X92624341Y-71120000D01*
X92644936Y-71355403D01*
X92644938Y-71355413D01*
X92706094Y-71583655D01*
X92706096Y-71583659D01*
X92706097Y-71583663D01*
X92794262Y-71772732D01*
X92805965Y-71797830D01*
X92805967Y-71797834D01*
X92941501Y-71991395D01*
X92941506Y-71991402D01*
X93108597Y-72158493D01*
X93108603Y-72158498D01*
X93294158Y-72288425D01*
X93337783Y-72343002D01*
X93344977Y-72412500D01*
X93313454Y-72474855D01*
X93294158Y-72491575D01*
X93108597Y-72621505D01*
X92941505Y-72788597D01*
X92805965Y-72982169D01*
X92805964Y-72982171D01*
X92706098Y-73196335D01*
X92706094Y-73196344D01*
X92644938Y-73424586D01*
X92644936Y-73424596D01*
X92624341Y-73659999D01*
X92624341Y-73660000D01*
X92644936Y-73895403D01*
X92644938Y-73895413D01*
X92706094Y-74123655D01*
X92706096Y-74123659D01*
X92706097Y-74123663D01*
X92794262Y-74312732D01*
X92805965Y-74337830D01*
X92805967Y-74337834D01*
X92941501Y-74531395D01*
X92941506Y-74531402D01*
X93108597Y-74698493D01*
X93108603Y-74698498D01*
X93294158Y-74828425D01*
X93337783Y-74883002D01*
X93344977Y-74952500D01*
X93313454Y-75014855D01*
X93294158Y-75031575D01*
X93108597Y-75161505D01*
X92941505Y-75328597D01*
X92805965Y-75522169D01*
X92805964Y-75522171D01*
X92706098Y-75736335D01*
X92706094Y-75736344D01*
X92644938Y-75964586D01*
X92644936Y-75964596D01*
X92624341Y-76199999D01*
X92624341Y-76200000D01*
X92644936Y-76435403D01*
X92644938Y-76435413D01*
X92706094Y-76663655D01*
X92706096Y-76663659D01*
X92706097Y-76663663D01*
X92794262Y-76852732D01*
X92805965Y-76877830D01*
X92805967Y-76877834D01*
X92941501Y-77071395D01*
X92941506Y-77071402D01*
X93108597Y-77238493D01*
X93108603Y-77238498D01*
X93294158Y-77368425D01*
X93337783Y-77423002D01*
X93344977Y-77492500D01*
X93313454Y-77554855D01*
X93294158Y-77571575D01*
X93108597Y-77701505D01*
X92941505Y-77868597D01*
X92805965Y-78062169D01*
X92805964Y-78062171D01*
X92706098Y-78276335D01*
X92706094Y-78276344D01*
X92644938Y-78504586D01*
X92644936Y-78504596D01*
X92624341Y-78739999D01*
X92624341Y-78740000D01*
X92644936Y-78975403D01*
X92644938Y-78975413D01*
X92706094Y-79203655D01*
X92706096Y-79203659D01*
X92706097Y-79203663D01*
X92794262Y-79392732D01*
X92805965Y-79417830D01*
X92805967Y-79417834D01*
X92941501Y-79611395D01*
X92941506Y-79611402D01*
X93108597Y-79778493D01*
X93108603Y-79778498D01*
X93294158Y-79908425D01*
X93337783Y-79963002D01*
X93344977Y-80032500D01*
X93313454Y-80094855D01*
X93294158Y-80111575D01*
X93108597Y-80241505D01*
X92941505Y-80408597D01*
X92805965Y-80602169D01*
X92805964Y-80602171D01*
X92706098Y-80816335D01*
X92706094Y-80816344D01*
X92644938Y-81044586D01*
X92644936Y-81044596D01*
X92624341Y-81279999D01*
X92624341Y-81280000D01*
X92644936Y-81515403D01*
X92644938Y-81515413D01*
X92706094Y-81743655D01*
X92706096Y-81743659D01*
X92706097Y-81743663D01*
X92794262Y-81932732D01*
X92805965Y-81957830D01*
X92805967Y-81957834D01*
X92941501Y-82151395D01*
X92941506Y-82151402D01*
X93108597Y-82318493D01*
X93108603Y-82318498D01*
X93294158Y-82448425D01*
X93337783Y-82503002D01*
X93344977Y-82572500D01*
X93313454Y-82634855D01*
X93294158Y-82651575D01*
X93108597Y-82781505D01*
X92941505Y-82948597D01*
X92805965Y-83142169D01*
X92805964Y-83142171D01*
X92706098Y-83356335D01*
X92706094Y-83356344D01*
X92644938Y-83584586D01*
X92644936Y-83584596D01*
X92624341Y-83819999D01*
X92624341Y-83820000D01*
X92644936Y-84055403D01*
X92644938Y-84055413D01*
X92706094Y-84283655D01*
X92706096Y-84283659D01*
X92706097Y-84283663D01*
X92794262Y-84472732D01*
X92805965Y-84497830D01*
X92805967Y-84497834D01*
X92941501Y-84691395D01*
X92941506Y-84691402D01*
X93108597Y-84858493D01*
X93108603Y-84858498D01*
X93294158Y-84988425D01*
X93337783Y-85043002D01*
X93344977Y-85112500D01*
X93313454Y-85174855D01*
X93294158Y-85191575D01*
X93108597Y-85321505D01*
X92941505Y-85488597D01*
X92805965Y-85682169D01*
X92805964Y-85682171D01*
X92706098Y-85896335D01*
X92706094Y-85896344D01*
X92644938Y-86124586D01*
X92644936Y-86124596D01*
X92624341Y-86359999D01*
X92624341Y-86360000D01*
X55880500Y-86360000D01*
X55880500Y-71120000D01*
X57064341Y-71120000D01*
X57084936Y-71355403D01*
X57084938Y-71355413D01*
X57146094Y-71583655D01*
X57146096Y-71583659D01*
X57146097Y-71583663D01*
X57234262Y-71772732D01*
X57245965Y-71797830D01*
X57245967Y-71797834D01*
X57354281Y-71952521D01*
X57381505Y-71991401D01*
X57548599Y-72158495D01*
X57645384Y-72226265D01*
X57742165Y-72294032D01*
X57742167Y-72294033D01*
X57742170Y-72294035D01*
X57956337Y-72393903D01*
X58184592Y-72455063D01*
X58372918Y-72471539D01*
X58419999Y-72475659D01*
X58420000Y-72475659D01*
X58420001Y-72475659D01*
X58459234Y-72472226D01*
X58655408Y-72455063D01*
X58883663Y-72393903D01*
X59097830Y-72294035D01*
X59291401Y-72158495D01*
X59458495Y-71991401D01*
X59594035Y-71797830D01*
X59693903Y-71583663D01*
X59755063Y-71355408D01*
X59775659Y-71120000D01*
X59755063Y-70884592D01*
X59693903Y-70656337D01*
X59594035Y-70442171D01*
X59458495Y-70248599D01*
X59458494Y-70248597D01*
X59291402Y-70081506D01*
X59291396Y-70081501D01*
X59105842Y-69951575D01*
X59062217Y-69896998D01*
X59055023Y-69827500D01*
X59086546Y-69765145D01*
X59105842Y-69748425D01*
X59214865Y-69672086D01*
X59291401Y-69618495D01*
X59458495Y-69451401D01*
X59594035Y-69257830D01*
X59693903Y-69043663D01*
X59755063Y-68815408D01*
X59775659Y-68580000D01*
X59775659Y-68579998D01*
X59775659Y-68579611D01*
X59775707Y-68579445D01*
X59776131Y-68574606D01*
X59777103Y-68574691D01*
X59795344Y-68512572D01*
X59848148Y-68466817D01*
X59917306Y-68456873D01*
X59980862Y-68485898D01*
X59987326Y-68491917D01*
X61302149Y-69806739D01*
X62838181Y-71342771D01*
X62871666Y-71404094D01*
X62874500Y-71430452D01*
X62874500Y-76117255D01*
X62872775Y-76132872D01*
X62873061Y-76132899D01*
X62872326Y-76140665D01*
X62874439Y-76207872D01*
X62874500Y-76211767D01*
X62874500Y-76239357D01*
X62875003Y-76243335D01*
X62875918Y-76254967D01*
X62877290Y-76298624D01*
X62877291Y-76298627D01*
X62882880Y-76317867D01*
X62886824Y-76336911D01*
X62887542Y-76342590D01*
X62889336Y-76356792D01*
X62905414Y-76397403D01*
X62909197Y-76408452D01*
X62921381Y-76450388D01*
X62931580Y-76467634D01*
X62940138Y-76485103D01*
X62947514Y-76503732D01*
X62973181Y-76539060D01*
X62979593Y-76548821D01*
X63001828Y-76586417D01*
X63001833Y-76586424D01*
X63015990Y-76600580D01*
X63028627Y-76615375D01*
X63040406Y-76631587D01*
X63058418Y-76646488D01*
X63074057Y-76659425D01*
X63082698Y-76667288D01*
X64740586Y-78325177D01*
X64774071Y-78386500D01*
X64772680Y-78444949D01*
X64754367Y-78513296D01*
X64754364Y-78513313D01*
X64734532Y-78739999D01*
X64734532Y-78740001D01*
X64754364Y-78966686D01*
X64754366Y-78966697D01*
X64813258Y-79186488D01*
X64813261Y-79186497D01*
X64909431Y-79392732D01*
X64909432Y-79392734D01*
X65039954Y-79579141D01*
X65200858Y-79740045D01*
X65200861Y-79740047D01*
X65387266Y-79870568D01*
X65445275Y-79897618D01*
X65497714Y-79943791D01*
X65516866Y-80010984D01*
X65496650Y-80077865D01*
X65445275Y-80122382D01*
X65387267Y-80149431D01*
X65387265Y-80149432D01*
X65200858Y-80279954D01*
X65039954Y-80440858D01*
X64909432Y-80627265D01*
X64909431Y-80627267D01*
X64813261Y-80833502D01*
X64813258Y-80833511D01*
X64754366Y-81053302D01*
X64754364Y-81053313D01*
X64734532Y-81279998D01*
X64734532Y-81280001D01*
X64754364Y-81506686D01*
X64754366Y-81506697D01*
X64813258Y-81726488D01*
X64813261Y-81726497D01*
X64909431Y-81932732D01*
X64909432Y-81932734D01*
X65039954Y-82119141D01*
X65200858Y-82280045D01*
X65200861Y-82280047D01*
X65387266Y-82410568D01*
X65445275Y-82437618D01*
X65497714Y-82483791D01*
X65516866Y-82550984D01*
X65496650Y-82617865D01*
X65445275Y-82662382D01*
X65387267Y-82689431D01*
X65387265Y-82689432D01*
X65200858Y-82819954D01*
X65039954Y-82980858D01*
X64909432Y-83167265D01*
X64909431Y-83167267D01*
X64813261Y-83373502D01*
X64813258Y-83373511D01*
X64754366Y-83593302D01*
X64754364Y-83593313D01*
X64734532Y-83819998D01*
X64734532Y-83820001D01*
X64754364Y-84046686D01*
X64754366Y-84046697D01*
X64813258Y-84266488D01*
X64813261Y-84266497D01*
X64909431Y-84472732D01*
X64909432Y-84472734D01*
X65039954Y-84659141D01*
X65200858Y-84820045D01*
X65200861Y-84820047D01*
X65387266Y-84950568D01*
X65593504Y-85046739D01*
X65813308Y-85105635D01*
X65975230Y-85119801D01*
X66039998Y-85125468D01*
X66040000Y-85125468D01*
X66040002Y-85125468D01*
X66096673Y-85120509D01*
X66266692Y-85105635D01*
X66486496Y-85046739D01*
X66692734Y-84950568D01*
X66879139Y-84820047D01*
X67040047Y-84659139D01*
X67170568Y-84472734D01*
X67266739Y-84266496D01*
X67325635Y-84046692D01*
X67345468Y-83820000D01*
X67325635Y-83593308D01*
X67266739Y-83373504D01*
X67170568Y-83167266D01*
X67040047Y-82980861D01*
X67040045Y-82980858D01*
X66879141Y-82819954D01*
X66692734Y-82689432D01*
X66692728Y-82689429D01*
X66634725Y-82662382D01*
X66582285Y-82616210D01*
X66563133Y-82549017D01*
X66583348Y-82482135D01*
X66634725Y-82437618D01*
X66692734Y-82410568D01*
X66879139Y-82280047D01*
X67040047Y-82119139D01*
X67170568Y-81932734D01*
X67266739Y-81726496D01*
X67325635Y-81506692D01*
X67345468Y-81280000D01*
X67325635Y-81053308D01*
X67266739Y-80833504D01*
X67170568Y-80627266D01*
X67040047Y-80440861D01*
X67040045Y-80440858D01*
X66879141Y-80279954D01*
X66692734Y-80149432D01*
X66692728Y-80149429D01*
X66634725Y-80122382D01*
X66582285Y-80076210D01*
X66563133Y-80009017D01*
X66583348Y-79942135D01*
X66634725Y-79897618D01*
X66692734Y-79870568D01*
X66879139Y-79740047D01*
X67040047Y-79579139D01*
X67170568Y-79392734D01*
X67266739Y-79186496D01*
X67325635Y-78966692D01*
X67345468Y-78740000D01*
X67325635Y-78513308D01*
X67266739Y-78293504D01*
X67170568Y-78087266D01*
X67040047Y-77900861D01*
X67040045Y-77900858D01*
X66879141Y-77739954D01*
X66692734Y-77609432D01*
X66692728Y-77609429D01*
X66665038Y-77596517D01*
X66634724Y-77582381D01*
X66582285Y-77536210D01*
X66563133Y-77469017D01*
X66583348Y-77402135D01*
X66634725Y-77357618D01*
X66692734Y-77330568D01*
X66879139Y-77200047D01*
X67040047Y-77039139D01*
X67170568Y-76852734D01*
X67266739Y-76646496D01*
X67325635Y-76426692D01*
X67345468Y-76200000D01*
X67325635Y-75973308D01*
X67266739Y-75753504D01*
X67170568Y-75547266D01*
X67040047Y-75360861D01*
X67040045Y-75360858D01*
X66879141Y-75199954D01*
X66692734Y-75069432D01*
X66692728Y-75069429D01*
X66634725Y-75042382D01*
X66582285Y-74996210D01*
X66563133Y-74929017D01*
X66583348Y-74862135D01*
X66634725Y-74817618D01*
X66692734Y-74790568D01*
X66879139Y-74660047D01*
X67040047Y-74499139D01*
X67170568Y-74312734D01*
X67266739Y-74106496D01*
X67325635Y-73886692D01*
X67345468Y-73660000D01*
X67325635Y-73433308D01*
X67266739Y-73213504D01*
X67170568Y-73007266D01*
X67040047Y-72820861D01*
X67040045Y-72820858D01*
X66879141Y-72659954D01*
X66692734Y-72529432D01*
X66692728Y-72529429D01*
X66634725Y-72502382D01*
X66582285Y-72456210D01*
X66563133Y-72389017D01*
X66583348Y-72322135D01*
X66634725Y-72277618D01*
X66692734Y-72250568D01*
X66879139Y-72120047D01*
X67040047Y-71959139D01*
X67170568Y-71772734D01*
X67266739Y-71566496D01*
X67325635Y-71346692D01*
X67345468Y-71120000D01*
X67325635Y-70893308D01*
X67266739Y-70673504D01*
X67170568Y-70467266D01*
X67040047Y-70280861D01*
X67040045Y-70280858D01*
X66879141Y-70119954D01*
X66692734Y-69989432D01*
X66692728Y-69989429D01*
X66634725Y-69962382D01*
X66582285Y-69916210D01*
X66563133Y-69849017D01*
X66583348Y-69782135D01*
X66634725Y-69737618D01*
X66692734Y-69710568D01*
X66879139Y-69580047D01*
X67040047Y-69419139D01*
X67170568Y-69232734D01*
X67266739Y-69026496D01*
X67325635Y-68806692D01*
X67345468Y-68580000D01*
X67345419Y-68579445D01*
X67325635Y-68353313D01*
X67325635Y-68353308D01*
X67266739Y-68133504D01*
X67170568Y-67927266D01*
X67040047Y-67740861D01*
X67040045Y-67740858D01*
X66879141Y-67579954D01*
X66692734Y-67449432D01*
X66692728Y-67449429D01*
X66634725Y-67422382D01*
X66582285Y-67376210D01*
X66563133Y-67309017D01*
X66583348Y-67242135D01*
X66634725Y-67197618D01*
X66692734Y-67170568D01*
X66879139Y-67040047D01*
X67040047Y-66879139D01*
X67170568Y-66692734D01*
X67266739Y-66486496D01*
X67325635Y-66266692D01*
X67345468Y-66040000D01*
X67325635Y-65813308D01*
X67266739Y-65593504D01*
X67170568Y-65387266D01*
X67040047Y-65200861D01*
X67040045Y-65200858D01*
X66879141Y-65039954D01*
X66692734Y-64909432D01*
X66692728Y-64909429D01*
X66634725Y-64882382D01*
X66582285Y-64836210D01*
X66563133Y-64769017D01*
X66583348Y-64702135D01*
X66634725Y-64657618D01*
X66692734Y-64630568D01*
X66879139Y-64500047D01*
X67040047Y-64339139D01*
X67170568Y-64152734D01*
X67266739Y-63946496D01*
X67325635Y-63726692D01*
X67345468Y-63500000D01*
X67325635Y-63273308D01*
X67266739Y-63053504D01*
X67170568Y-62847266D01*
X67040047Y-62660861D01*
X67040045Y-62660858D01*
X66879141Y-62499954D01*
X66692734Y-62369432D01*
X66692728Y-62369429D01*
X66634725Y-62342382D01*
X66582285Y-62296210D01*
X66563133Y-62229017D01*
X66583348Y-62162135D01*
X66634725Y-62117618D01*
X66692734Y-62090568D01*
X66879139Y-61960047D01*
X67040047Y-61799139D01*
X67170568Y-61612734D01*
X67266739Y-61406496D01*
X67325635Y-61186692D01*
X67345468Y-60960000D01*
X67325635Y-60733308D01*
X67266739Y-60513504D01*
X67170568Y-60307266D01*
X67040047Y-60120861D01*
X67040045Y-60120858D01*
X66879141Y-59959954D01*
X66692734Y-59829432D01*
X66692728Y-59829429D01*
X66634725Y-59802382D01*
X66582285Y-59756210D01*
X66563133Y-59689017D01*
X66583348Y-59622135D01*
X66634725Y-59577618D01*
X66692734Y-59550568D01*
X66879139Y-59420047D01*
X67040047Y-59259139D01*
X67170568Y-59072734D01*
X67266739Y-58866496D01*
X67325635Y-58646692D01*
X67345468Y-58420000D01*
X67325635Y-58193308D01*
X67266739Y-57973504D01*
X67170568Y-57767266D01*
X67040047Y-57580861D01*
X67040045Y-57580858D01*
X66879141Y-57419954D01*
X66692734Y-57289432D01*
X66692728Y-57289429D01*
X66665038Y-57276517D01*
X66634724Y-57262381D01*
X66582285Y-57216210D01*
X66563133Y-57149017D01*
X66583348Y-57082135D01*
X66634725Y-57037618D01*
X66635319Y-57037341D01*
X66692734Y-57010568D01*
X66879139Y-56880047D01*
X67040047Y-56719139D01*
X67170568Y-56532734D01*
X67266739Y-56326496D01*
X67325635Y-56106692D01*
X67345468Y-55880000D01*
X67325635Y-55653308D01*
X67266739Y-55433504D01*
X67170568Y-55227266D01*
X67040047Y-55040861D01*
X67040045Y-55040858D01*
X66879141Y-54879954D01*
X66692734Y-54749432D01*
X66692728Y-54749429D01*
X66634725Y-54722382D01*
X66582285Y-54676210D01*
X66563133Y-54609017D01*
X66583348Y-54542135D01*
X66634725Y-54497618D01*
X66692734Y-54470568D01*
X66879139Y-54340047D01*
X67040047Y-54179139D01*
X67170568Y-53992734D01*
X67266739Y-53786496D01*
X67325635Y-53566692D01*
X67345468Y-53340000D01*
X67325635Y-53113308D01*
X67266739Y-52893504D01*
X67170568Y-52687266D01*
X67040047Y-52500861D01*
X67040045Y-52500858D01*
X66879141Y-52339954D01*
X66692734Y-52209432D01*
X66692728Y-52209429D01*
X66634725Y-52182382D01*
X66582285Y-52136210D01*
X66563133Y-52069017D01*
X66583348Y-52002135D01*
X66634725Y-51957618D01*
X66692734Y-51930568D01*
X66879139Y-51800047D01*
X67040047Y-51639139D01*
X67170568Y-51452734D01*
X67266739Y-51246496D01*
X67325635Y-51026692D01*
X67345468Y-50800000D01*
X67325635Y-50573308D01*
X67266739Y-50353504D01*
X67170568Y-50147266D01*
X67040047Y-49960861D01*
X67040045Y-49960858D01*
X66879143Y-49799956D01*
X66854536Y-49782726D01*
X66810912Y-49728149D01*
X66803719Y-49658650D01*
X66835241Y-49596296D01*
X66895471Y-49560882D01*
X66912404Y-49557861D01*
X66947483Y-49554091D01*
X67082331Y-49503796D01*
X67197546Y-49417546D01*
X67283796Y-49302331D01*
X67334091Y-49167483D01*
X67340500Y-49107873D01*
X67340499Y-47412128D01*
X67334091Y-47352517D01*
X67299567Y-47259954D01*
X67283797Y-47217671D01*
X67283793Y-47217664D01*
X67197547Y-47102455D01*
X67197544Y-47102452D01*
X67082335Y-47016206D01*
X67082328Y-47016202D01*
X66947482Y-46965908D01*
X66947483Y-46965908D01*
X66887883Y-46959501D01*
X66887881Y-46959500D01*
X66887873Y-46959500D01*
X66887865Y-46959500D01*
X65984451Y-46959500D01*
X65917412Y-46939815D01*
X65871657Y-46887011D01*
X65861713Y-46817853D01*
X65890738Y-46754297D01*
X65896770Y-46747819D01*
X67159994Y-45484596D01*
X71342772Y-41301819D01*
X71404095Y-41268334D01*
X71430453Y-41265500D01*
X72185501Y-41265500D01*
X72252540Y-41285185D01*
X72298295Y-41337989D01*
X72309501Y-41389500D01*
X72309501Y-41537876D01*
X72315908Y-41597483D01*
X72366202Y-41732328D01*
X72366206Y-41732335D01*
X72452452Y-41847544D01*
X72452455Y-41847547D01*
X72567664Y-41933793D01*
X72567671Y-41933797D01*
X72612618Y-41950561D01*
X72702517Y-41984091D01*
X72762127Y-41990500D01*
X72910500Y-41990499D01*
X72977539Y-42010183D01*
X73023294Y-42062987D01*
X73034500Y-42114499D01*
X73034500Y-43109152D01*
X73032305Y-43132382D01*
X73030773Y-43140414D01*
X73034255Y-43195757D01*
X73034500Y-43203543D01*
X73034500Y-43219356D01*
X73036481Y-43235037D01*
X73037213Y-43242785D01*
X73040696Y-43298138D01*
X73043222Y-43305914D01*
X73048309Y-43328672D01*
X73049334Y-43336784D01*
X73049336Y-43336791D01*
X73069753Y-43388359D01*
X73072390Y-43395685D01*
X73089532Y-43448440D01*
X73093907Y-43455333D01*
X73104503Y-43476129D01*
X73107511Y-43483726D01*
X73107513Y-43483730D01*
X73107514Y-43483732D01*
X73140121Y-43528612D01*
X73144498Y-43535053D01*
X73174213Y-43581875D01*
X73174213Y-43581876D01*
X73180164Y-43587464D01*
X73195604Y-43604978D01*
X73200403Y-43611585D01*
X73243146Y-43646945D01*
X73248978Y-43652087D01*
X73289418Y-43690062D01*
X73296578Y-43693998D01*
X73315879Y-43707114D01*
X73322177Y-43712324D01*
X73322178Y-43712324D01*
X73322179Y-43712325D01*
X73372362Y-43735939D01*
X73379305Y-43739477D01*
X73427903Y-43766195D01*
X73427905Y-43766195D01*
X73427908Y-43766197D01*
X73433205Y-43767556D01*
X73435814Y-43768227D01*
X73457776Y-43776132D01*
X73465174Y-43779614D01*
X73519666Y-43790008D01*
X73527263Y-43791707D01*
X73580981Y-43805500D01*
X73589153Y-43805500D01*
X73612385Y-43807696D01*
X73613989Y-43808001D01*
X73620412Y-43809227D01*
X73620413Y-43809226D01*
X73620414Y-43809227D01*
X73675759Y-43805745D01*
X73683545Y-43805500D01*
X83070500Y-43805500D01*
X83137539Y-43825185D01*
X83183294Y-43877989D01*
X83194500Y-43929500D01*
X83194500Y-47510500D01*
X83174815Y-47577539D01*
X83122011Y-47623294D01*
X83070500Y-47634500D01*
X82494188Y-47634500D01*
X82427149Y-47614815D01*
X82392613Y-47581623D01*
X82280045Y-47420858D01*
X82119141Y-47259954D01*
X81932734Y-47129432D01*
X81932732Y-47129431D01*
X81726497Y-47033261D01*
X81726488Y-47033258D01*
X81506697Y-46974366D01*
X81506693Y-46974365D01*
X81506692Y-46974365D01*
X81506691Y-46974364D01*
X81506686Y-46974364D01*
X81280002Y-46954532D01*
X81279998Y-46954532D01*
X81053313Y-46974364D01*
X81053302Y-46974366D01*
X80833511Y-47033258D01*
X80833502Y-47033261D01*
X80627267Y-47129431D01*
X80627265Y-47129432D01*
X80440858Y-47259954D01*
X80279954Y-47420858D01*
X80149432Y-47607265D01*
X80149431Y-47607267D01*
X80053261Y-47813502D01*
X80053258Y-47813511D01*
X79994366Y-48033302D01*
X79994364Y-48033313D01*
X79974532Y-48259998D01*
X79974532Y-48260001D01*
X79994364Y-48486686D01*
X79994366Y-48486697D01*
X80053258Y-48706488D01*
X80053261Y-48706497D01*
X80149431Y-48912732D01*
X80149432Y-48912734D01*
X80279954Y-49099141D01*
X80440858Y-49260045D01*
X80440861Y-49260047D01*
X80627266Y-49390568D01*
X80685275Y-49417618D01*
X80737714Y-49463791D01*
X80756866Y-49530984D01*
X80736650Y-49597865D01*
X80685275Y-49642382D01*
X80627267Y-49669431D01*
X80627265Y-49669432D01*
X80440858Y-49799954D01*
X80279954Y-49960858D01*
X80149432Y-50147265D01*
X80149431Y-50147267D01*
X80053261Y-50353502D01*
X80053258Y-50353511D01*
X79994366Y-50573302D01*
X79994364Y-50573313D01*
X79974532Y-50799998D01*
X79974532Y-50800001D01*
X79994364Y-51026686D01*
X79994366Y-51026697D01*
X80053258Y-51246488D01*
X80053261Y-51246497D01*
X80149431Y-51452732D01*
X80149432Y-51452734D01*
X80279954Y-51639141D01*
X80440858Y-51800045D01*
X80440861Y-51800047D01*
X80627266Y-51930568D01*
X80685275Y-51957618D01*
X80737714Y-52003791D01*
X80756866Y-52070984D01*
X80736650Y-52137865D01*
X80685275Y-52182382D01*
X80627267Y-52209431D01*
X80627265Y-52209432D01*
X80440858Y-52339954D01*
X80279954Y-52500858D01*
X80149432Y-52687265D01*
X80149431Y-52687267D01*
X80053261Y-52893502D01*
X80053258Y-52893511D01*
X79994366Y-53113302D01*
X79994364Y-53113313D01*
X79974532Y-53339998D01*
X79974532Y-53340001D01*
X79994364Y-53566686D01*
X79994366Y-53566697D01*
X80053258Y-53786488D01*
X80053261Y-53786497D01*
X80149431Y-53992732D01*
X80149432Y-53992734D01*
X80279954Y-54179141D01*
X80440858Y-54340045D01*
X80440861Y-54340047D01*
X80627266Y-54470568D01*
X80685865Y-54497893D01*
X80738305Y-54544065D01*
X80757457Y-54611258D01*
X80737242Y-54678139D01*
X80685867Y-54722657D01*
X80627515Y-54749867D01*
X80441179Y-54880342D01*
X80280342Y-55041179D01*
X80149865Y-55227517D01*
X80053734Y-55433673D01*
X80053730Y-55433682D01*
X80001127Y-55629999D01*
X80001128Y-55630000D01*
X80846314Y-55630000D01*
X80820507Y-55670156D01*
X80780000Y-55808111D01*
X80780000Y-55951889D01*
X80820507Y-56089844D01*
X80846314Y-56130000D01*
X80001128Y-56130000D01*
X80053730Y-56326317D01*
X80053734Y-56326326D01*
X80149865Y-56532482D01*
X80280342Y-56718820D01*
X80441179Y-56879657D01*
X80627518Y-57010134D01*
X80627520Y-57010135D01*
X80685865Y-57037342D01*
X80738305Y-57083514D01*
X80757457Y-57150707D01*
X80737242Y-57217589D01*
X80685867Y-57262105D01*
X80627268Y-57289431D01*
X80627264Y-57289433D01*
X80440858Y-57419954D01*
X80279954Y-57580858D01*
X80149432Y-57767265D01*
X80149431Y-57767267D01*
X80053261Y-57973502D01*
X80053258Y-57973511D01*
X79994366Y-58193302D01*
X79994364Y-58193313D01*
X79974532Y-58419998D01*
X79974532Y-58420001D01*
X79994364Y-58646686D01*
X79994366Y-58646697D01*
X80053258Y-58866488D01*
X80053261Y-58866497D01*
X80149431Y-59072732D01*
X80149432Y-59072734D01*
X80279954Y-59259141D01*
X80440858Y-59420045D01*
X80440861Y-59420047D01*
X80627266Y-59550568D01*
X80685275Y-59577618D01*
X80737714Y-59623791D01*
X80756866Y-59690984D01*
X80736650Y-59757865D01*
X80685275Y-59802382D01*
X80627267Y-59829431D01*
X80627265Y-59829432D01*
X80440858Y-59959954D01*
X80279954Y-60120858D01*
X80149432Y-60307265D01*
X80149431Y-60307267D01*
X80053261Y-60513502D01*
X80053258Y-60513511D01*
X79994366Y-60733302D01*
X79994364Y-60733313D01*
X79974532Y-60959998D01*
X79974532Y-60960001D01*
X79994364Y-61186686D01*
X79994366Y-61186697D01*
X80053258Y-61406488D01*
X80053261Y-61406497D01*
X80149431Y-61612732D01*
X80149432Y-61612734D01*
X80279954Y-61799141D01*
X80440858Y-61960045D01*
X80440861Y-61960047D01*
X80627266Y-62090568D01*
X80685275Y-62117618D01*
X80737714Y-62163791D01*
X80756866Y-62230984D01*
X80736650Y-62297865D01*
X80685275Y-62342382D01*
X80627267Y-62369431D01*
X80627265Y-62369432D01*
X80440858Y-62499954D01*
X80279954Y-62660858D01*
X80149432Y-62847265D01*
X80149431Y-62847267D01*
X80053261Y-63053502D01*
X80053258Y-63053511D01*
X79994366Y-63273302D01*
X79994364Y-63273313D01*
X79974532Y-63499998D01*
X79974532Y-63500001D01*
X79994364Y-63726686D01*
X79994366Y-63726697D01*
X80053258Y-63946488D01*
X80053261Y-63946497D01*
X80149431Y-64152732D01*
X80149432Y-64152734D01*
X80279954Y-64339141D01*
X80440858Y-64500045D01*
X80440861Y-64500047D01*
X80627266Y-64630568D01*
X80685275Y-64657618D01*
X80737714Y-64703791D01*
X80756866Y-64770984D01*
X80736650Y-64837865D01*
X80685275Y-64882382D01*
X80627267Y-64909431D01*
X80627265Y-64909432D01*
X80440858Y-65039954D01*
X80279954Y-65200858D01*
X80149432Y-65387265D01*
X80149431Y-65387267D01*
X80053261Y-65593502D01*
X80053258Y-65593511D01*
X79994366Y-65813302D01*
X79994364Y-65813313D01*
X79974532Y-66039998D01*
X79974532Y-66040001D01*
X79994364Y-66266686D01*
X79994366Y-66266697D01*
X80053258Y-66486488D01*
X80053261Y-66486497D01*
X80149431Y-66692732D01*
X80149432Y-66692734D01*
X80279954Y-66879141D01*
X80440858Y-67040045D01*
X80440861Y-67040047D01*
X80627266Y-67170568D01*
X80685275Y-67197618D01*
X80737714Y-67243791D01*
X80756866Y-67310984D01*
X80736650Y-67377865D01*
X80685275Y-67422382D01*
X80627267Y-67449431D01*
X80627265Y-67449432D01*
X80440858Y-67579954D01*
X80279954Y-67740858D01*
X80149432Y-67927265D01*
X80149431Y-67927267D01*
X80053261Y-68133502D01*
X80053258Y-68133511D01*
X79994366Y-68353302D01*
X79994364Y-68353313D01*
X79974532Y-68579998D01*
X79974532Y-68580001D01*
X79994364Y-68806686D01*
X79994366Y-68806697D01*
X80053258Y-69026488D01*
X80053261Y-69026497D01*
X80149431Y-69232732D01*
X80149432Y-69232734D01*
X80279954Y-69419141D01*
X80440858Y-69580045D01*
X80440861Y-69580047D01*
X80627266Y-69710568D01*
X80685275Y-69737618D01*
X80737714Y-69783791D01*
X80756866Y-69850984D01*
X80736650Y-69917865D01*
X80685275Y-69962382D01*
X80627267Y-69989431D01*
X80627265Y-69989432D01*
X80440858Y-70119954D01*
X80279954Y-70280858D01*
X80149432Y-70467265D01*
X80149431Y-70467267D01*
X80053261Y-70673502D01*
X80053258Y-70673511D01*
X79994366Y-70893302D01*
X79994364Y-70893313D01*
X79974532Y-71119998D01*
X79974532Y-71120001D01*
X79994364Y-71346686D01*
X79994366Y-71346697D01*
X80053258Y-71566488D01*
X80053261Y-71566497D01*
X80149431Y-71772732D01*
X80149432Y-71772734D01*
X80279954Y-71959141D01*
X80440858Y-72120045D01*
X80440861Y-72120047D01*
X80627266Y-72250568D01*
X80685275Y-72277618D01*
X80737714Y-72323791D01*
X80756866Y-72390984D01*
X80736650Y-72457865D01*
X80685275Y-72502382D01*
X80627267Y-72529431D01*
X80627265Y-72529432D01*
X80440858Y-72659954D01*
X80279954Y-72820858D01*
X80149432Y-73007265D01*
X80149431Y-73007267D01*
X80053261Y-73213502D01*
X80053258Y-73213511D01*
X79994366Y-73433302D01*
X79994364Y-73433313D01*
X79974532Y-73659998D01*
X79974532Y-73660001D01*
X79994364Y-73886686D01*
X79994366Y-73886697D01*
X80053258Y-74106488D01*
X80053261Y-74106497D01*
X80149431Y-74312732D01*
X80149432Y-74312734D01*
X80279954Y-74499141D01*
X80440858Y-74660045D01*
X80440861Y-74660047D01*
X80627266Y-74790568D01*
X80685275Y-74817618D01*
X80737714Y-74863791D01*
X80756866Y-74930984D01*
X80736650Y-74997865D01*
X80685275Y-75042382D01*
X80627267Y-75069431D01*
X80627265Y-75069432D01*
X80440858Y-75199954D01*
X80279954Y-75360858D01*
X80149432Y-75547265D01*
X80149431Y-75547267D01*
X80053261Y-75753502D01*
X80053258Y-75753511D01*
X79994366Y-75973302D01*
X79994364Y-75973313D01*
X79974532Y-76199998D01*
X79974532Y-76200001D01*
X79994364Y-76426686D01*
X79994366Y-76426697D01*
X80053258Y-76646488D01*
X80053261Y-76646497D01*
X80149431Y-76852732D01*
X80149432Y-76852734D01*
X80279954Y-77039141D01*
X80440858Y-77200045D01*
X80440861Y-77200047D01*
X80627266Y-77330568D01*
X80685275Y-77357618D01*
X80737714Y-77403791D01*
X80756866Y-77470984D01*
X80736650Y-77537865D01*
X80685275Y-77582381D01*
X80668272Y-77590310D01*
X80627267Y-77609431D01*
X80627265Y-77609432D01*
X80440858Y-77739954D01*
X80279954Y-77900858D01*
X80149432Y-78087265D01*
X80149431Y-78087267D01*
X80053261Y-78293502D01*
X80053258Y-78293511D01*
X79994366Y-78513302D01*
X79994364Y-78513313D01*
X79974532Y-78739998D01*
X79974532Y-78740001D01*
X79994364Y-78966686D01*
X79994366Y-78966697D01*
X80053258Y-79186488D01*
X80053261Y-79186497D01*
X80149431Y-79392732D01*
X80149432Y-79392734D01*
X80279954Y-79579141D01*
X80440858Y-79740045D01*
X80440861Y-79740047D01*
X80627266Y-79870568D01*
X80685275Y-79897618D01*
X80737714Y-79943791D01*
X80756866Y-80010984D01*
X80736650Y-80077865D01*
X80685275Y-80122382D01*
X80627267Y-80149431D01*
X80627265Y-80149432D01*
X80440858Y-80279954D01*
X80279954Y-80440858D01*
X80149432Y-80627265D01*
X80149431Y-80627267D01*
X80053261Y-80833502D01*
X80053258Y-80833511D01*
X79994366Y-81053302D01*
X79994364Y-81053313D01*
X79974532Y-81279998D01*
X79974532Y-81280001D01*
X79994364Y-81506686D01*
X79994366Y-81506697D01*
X80053258Y-81726488D01*
X80053261Y-81726497D01*
X80149431Y-81932732D01*
X80149432Y-81932734D01*
X80279954Y-82119141D01*
X80440858Y-82280045D01*
X80440861Y-82280047D01*
X80627266Y-82410568D01*
X80685275Y-82437618D01*
X80737714Y-82483791D01*
X80756866Y-82550984D01*
X80736650Y-82617865D01*
X80685275Y-82662382D01*
X80627267Y-82689431D01*
X80627265Y-82689432D01*
X80440858Y-82819954D01*
X80279954Y-82980858D01*
X80149432Y-83167265D01*
X80149431Y-83167267D01*
X80053261Y-83373502D01*
X80053258Y-83373511D01*
X79994366Y-83593302D01*
X79994364Y-83593313D01*
X79974532Y-83819998D01*
X79974532Y-83820001D01*
X79994364Y-84046686D01*
X79994366Y-84046697D01*
X80053258Y-84266488D01*
X80053261Y-84266497D01*
X80149431Y-84472732D01*
X80149432Y-84472734D01*
X80279954Y-84659141D01*
X80440858Y-84820045D01*
X80440861Y-84820047D01*
X80627266Y-84950568D01*
X80833504Y-85046739D01*
X81053308Y-85105635D01*
X81215230Y-85119801D01*
X81279998Y-85125468D01*
X81280000Y-85125468D01*
X81280002Y-85125468D01*
X81336673Y-85120509D01*
X81506692Y-85105635D01*
X81726496Y-85046739D01*
X81932734Y-84950568D01*
X82119139Y-84820047D01*
X82280047Y-84659139D01*
X82410568Y-84472734D01*
X82506739Y-84266496D01*
X82565635Y-84046692D01*
X82585468Y-83820000D01*
X82565635Y-83593308D01*
X82506739Y-83373504D01*
X82410568Y-83167266D01*
X82280047Y-82980861D01*
X82280045Y-82980858D01*
X82119141Y-82819954D01*
X81932734Y-82689432D01*
X81932728Y-82689429D01*
X81874725Y-82662382D01*
X81822285Y-82616210D01*
X81803133Y-82549017D01*
X81823348Y-82482135D01*
X81874725Y-82437618D01*
X81932734Y-82410568D01*
X82119139Y-82280047D01*
X82280047Y-82119139D01*
X82410568Y-81932734D01*
X82506739Y-81726496D01*
X82565635Y-81506692D01*
X82585468Y-81280000D01*
X85004341Y-81280000D01*
X85024936Y-81515403D01*
X85024938Y-81515413D01*
X85086094Y-81743655D01*
X85086096Y-81743659D01*
X85086097Y-81743663D01*
X85174262Y-81932732D01*
X85185965Y-81957830D01*
X85185967Y-81957834D01*
X85294281Y-82112521D01*
X85321505Y-82151401D01*
X85488599Y-82318495D01*
X85585384Y-82386265D01*
X85682165Y-82454032D01*
X85682167Y-82454033D01*
X85682170Y-82454035D01*
X85896337Y-82553903D01*
X86124592Y-82615063D01*
X86312918Y-82631539D01*
X86359999Y-82635659D01*
X86360000Y-82635659D01*
X86360001Y-82635659D01*
X86399234Y-82632226D01*
X86595408Y-82615063D01*
X86823663Y-82553903D01*
X87037830Y-82454035D01*
X87231401Y-82318495D01*
X87398495Y-82151401D01*
X87534035Y-81957830D01*
X87633903Y-81743663D01*
X87695063Y-81515408D01*
X87715659Y-81280000D01*
X87695063Y-81044592D01*
X87633903Y-80816337D01*
X87534035Y-80602171D01*
X87398495Y-80408599D01*
X87398494Y-80408597D01*
X87231402Y-80241506D01*
X87231396Y-80241501D01*
X87045842Y-80111575D01*
X87002217Y-80056998D01*
X86995023Y-79987500D01*
X87026546Y-79925145D01*
X87045842Y-79908425D01*
X87099909Y-79870567D01*
X87231401Y-79778495D01*
X87398495Y-79611401D01*
X87534035Y-79417830D01*
X87633903Y-79203663D01*
X87695063Y-78975408D01*
X87715659Y-78740000D01*
X87695063Y-78504592D01*
X87633903Y-78276337D01*
X87534035Y-78062171D01*
X87398495Y-77868599D01*
X87276567Y-77746671D01*
X87243084Y-77685351D01*
X87248068Y-77615659D01*
X87289939Y-77559725D01*
X87320915Y-77542810D01*
X87452331Y-77493796D01*
X87567546Y-77407546D01*
X87653796Y-77292331D01*
X87704091Y-77157483D01*
X87710500Y-77097873D01*
X87710499Y-75302128D01*
X87704091Y-75242517D01*
X87653796Y-75107669D01*
X87653795Y-75107668D01*
X87653793Y-75107664D01*
X87567547Y-74992455D01*
X87567544Y-74992452D01*
X87452335Y-74906206D01*
X87452328Y-74906202D01*
X87317482Y-74855908D01*
X87317483Y-74855908D01*
X87257883Y-74849501D01*
X87257881Y-74849500D01*
X87257873Y-74849500D01*
X87257864Y-74849500D01*
X85462129Y-74849500D01*
X85462123Y-74849501D01*
X85402516Y-74855908D01*
X85267671Y-74906202D01*
X85267664Y-74906206D01*
X85152455Y-74992452D01*
X85152452Y-74992455D01*
X85066206Y-75107664D01*
X85066202Y-75107671D01*
X85015908Y-75242517D01*
X85009501Y-75302116D01*
X85009501Y-75302123D01*
X85009500Y-75302135D01*
X85009500Y-77097870D01*
X85009501Y-77097876D01*
X85015908Y-77157483D01*
X85066202Y-77292328D01*
X85066206Y-77292335D01*
X85152452Y-77407544D01*
X85152455Y-77407547D01*
X85267664Y-77493793D01*
X85267671Y-77493797D01*
X85399081Y-77542810D01*
X85455015Y-77584681D01*
X85479432Y-77650145D01*
X85464580Y-77718418D01*
X85443430Y-77746673D01*
X85321503Y-77868600D01*
X85185965Y-78062169D01*
X85185964Y-78062171D01*
X85086098Y-78276335D01*
X85086094Y-78276344D01*
X85024938Y-78504586D01*
X85024936Y-78504596D01*
X85004341Y-78739999D01*
X85004341Y-78740000D01*
X85024936Y-78975403D01*
X85024938Y-78975413D01*
X85086094Y-79203655D01*
X85086096Y-79203659D01*
X85086097Y-79203663D01*
X85174262Y-79392732D01*
X85185965Y-79417830D01*
X85185967Y-79417834D01*
X85321501Y-79611395D01*
X85321506Y-79611402D01*
X85488597Y-79778493D01*
X85488603Y-79778498D01*
X85674158Y-79908425D01*
X85717783Y-79963002D01*
X85724977Y-80032500D01*
X85693454Y-80094855D01*
X85674158Y-80111575D01*
X85488597Y-80241505D01*
X85321505Y-80408597D01*
X85185965Y-80602169D01*
X85185964Y-80602171D01*
X85086098Y-80816335D01*
X85086094Y-80816344D01*
X85024938Y-81044586D01*
X85024936Y-81044596D01*
X85004341Y-81279999D01*
X85004341Y-81280000D01*
X82585468Y-81280000D01*
X82565635Y-81053308D01*
X82506739Y-80833504D01*
X82410568Y-80627266D01*
X82280047Y-80440861D01*
X82280045Y-80440858D01*
X82119141Y-80279954D01*
X81932734Y-80149432D01*
X81932728Y-80149429D01*
X81874725Y-80122382D01*
X81822285Y-80076210D01*
X81803133Y-80009017D01*
X81823348Y-79942135D01*
X81874725Y-79897618D01*
X81932734Y-79870568D01*
X82119139Y-79740047D01*
X82280047Y-79579139D01*
X82410568Y-79392734D01*
X82506739Y-79186496D01*
X82565635Y-78966692D01*
X82585468Y-78740000D01*
X82565635Y-78513308D01*
X82506739Y-78293504D01*
X82410568Y-78087266D01*
X82280047Y-77900861D01*
X82280045Y-77900858D01*
X82119141Y-77739954D01*
X81932734Y-77609432D01*
X81932728Y-77609429D01*
X81905038Y-77596517D01*
X81874724Y-77582381D01*
X81822285Y-77536210D01*
X81803133Y-77469017D01*
X81823348Y-77402135D01*
X81874725Y-77357618D01*
X81932734Y-77330568D01*
X82119139Y-77200047D01*
X82280047Y-77039139D01*
X82410568Y-76852734D01*
X82506739Y-76646496D01*
X82565635Y-76426692D01*
X82585468Y-76200000D01*
X82565635Y-75973308D01*
X82506739Y-75753504D01*
X82410568Y-75547266D01*
X82280047Y-75360861D01*
X82280045Y-75360858D01*
X82119141Y-75199954D01*
X81932734Y-75069432D01*
X81932728Y-75069429D01*
X81874725Y-75042382D01*
X81822285Y-74996210D01*
X81803133Y-74929017D01*
X81823348Y-74862135D01*
X81874725Y-74817618D01*
X81932734Y-74790568D01*
X82119139Y-74660047D01*
X82280047Y-74499139D01*
X82410568Y-74312734D01*
X82506739Y-74106496D01*
X82565635Y-73886692D01*
X82585468Y-73660000D01*
X82565635Y-73433308D01*
X82506739Y-73213504D01*
X82410568Y-73007266D01*
X82280047Y-72820861D01*
X82280045Y-72820858D01*
X82119141Y-72659954D01*
X81932734Y-72529432D01*
X81932728Y-72529429D01*
X81874725Y-72502382D01*
X81822285Y-72456210D01*
X81803133Y-72389017D01*
X81823348Y-72322135D01*
X81874725Y-72277618D01*
X81932734Y-72250568D01*
X82119139Y-72120047D01*
X82280047Y-71959139D01*
X82410568Y-71772734D01*
X82506739Y-71566496D01*
X82565635Y-71346692D01*
X82585468Y-71120000D01*
X82565635Y-70893308D01*
X82506739Y-70673504D01*
X82410568Y-70467266D01*
X82280047Y-70280861D01*
X82280045Y-70280858D01*
X82119141Y-70119954D01*
X81932734Y-69989432D01*
X81932728Y-69989429D01*
X81874725Y-69962382D01*
X81822285Y-69916210D01*
X81803133Y-69849017D01*
X81823348Y-69782135D01*
X81874725Y-69737618D01*
X81932734Y-69710568D01*
X82119139Y-69580047D01*
X82280047Y-69419139D01*
X82410568Y-69232734D01*
X82506739Y-69026496D01*
X82565635Y-68806692D01*
X82585468Y-68580000D01*
X82585419Y-68579445D01*
X82565635Y-68353313D01*
X82565635Y-68353308D01*
X82506739Y-68133504D01*
X82410568Y-67927266D01*
X82280047Y-67740861D01*
X82280045Y-67740858D01*
X82119141Y-67579954D01*
X81932734Y-67449432D01*
X81932728Y-67449429D01*
X81874725Y-67422382D01*
X81822285Y-67376210D01*
X81803133Y-67309017D01*
X81823348Y-67242135D01*
X81874725Y-67197618D01*
X81932734Y-67170568D01*
X82119139Y-67040047D01*
X82280047Y-66879139D01*
X82392613Y-66718377D01*
X82447189Y-66674752D01*
X82494188Y-66665500D01*
X83737257Y-66665500D01*
X83752877Y-66667224D01*
X83752904Y-66666939D01*
X83760660Y-66667671D01*
X83760667Y-66667673D01*
X83827873Y-66665561D01*
X83831768Y-66665500D01*
X83859346Y-66665500D01*
X83859350Y-66665500D01*
X83863324Y-66664997D01*
X83874963Y-66664080D01*
X83918627Y-66662709D01*
X83937869Y-66657117D01*
X83956912Y-66653174D01*
X83976792Y-66650664D01*
X84017401Y-66634585D01*
X84028444Y-66630803D01*
X84070390Y-66618618D01*
X84087629Y-66608422D01*
X84105103Y-66599862D01*
X84123727Y-66592488D01*
X84123727Y-66592487D01*
X84123732Y-66592486D01*
X84159083Y-66566800D01*
X84168814Y-66560408D01*
X84206420Y-66538170D01*
X84220589Y-66523999D01*
X84235379Y-66511368D01*
X84251587Y-66499594D01*
X84279438Y-66465926D01*
X84287279Y-66457309D01*
X92412660Y-58331929D01*
X92473983Y-58298444D01*
X92543675Y-58303428D01*
X92599608Y-58345300D01*
X92624025Y-58410764D01*
X92624341Y-58419610D01*
X92624341Y-58420000D01*
X92644936Y-58655403D01*
X92644938Y-58655413D01*
X92706094Y-58883655D01*
X92706096Y-58883659D01*
X92706097Y-58883663D01*
X92782234Y-59046939D01*
X92805965Y-59097830D01*
X92805967Y-59097834D01*
X92914281Y-59252521D01*
X92941501Y-59291396D01*
X92941506Y-59291402D01*
X93108597Y-59458493D01*
X93108603Y-59458498D01*
X93294158Y-59588425D01*
X93337783Y-59643002D01*
X93344977Y-59712500D01*
X93313454Y-59774855D01*
X93294158Y-59791575D01*
X93108597Y-59921505D01*
X92941505Y-60088597D01*
X92805965Y-60282169D01*
X92805964Y-60282171D01*
X92706098Y-60496335D01*
X92706094Y-60496344D01*
X92644938Y-60724586D01*
X92644936Y-60724596D01*
X92624341Y-60959999D01*
X92624341Y-60960000D01*
X92644936Y-61195403D01*
X92644938Y-61195413D01*
X92706094Y-61423655D01*
X92706096Y-61423659D01*
X92706097Y-61423663D01*
X92794262Y-61612732D01*
X92805965Y-61637830D01*
X92805967Y-61637834D01*
X92914281Y-61792521D01*
X92941505Y-61831401D01*
X93108599Y-61998495D01*
X93205384Y-62066265D01*
X93302165Y-62134032D01*
X93302167Y-62134033D01*
X93302170Y-62134035D01*
X93516337Y-62233903D01*
X93744592Y-62295063D01*
X93932918Y-62311539D01*
X93979999Y-62315659D01*
X93980000Y-62315659D01*
X93980001Y-62315659D01*
X94019234Y-62312226D01*
X94215408Y-62295063D01*
X94443663Y-62233903D01*
X94657830Y-62134035D01*
X94851401Y-61998495D01*
X95018495Y-61831401D01*
X95154035Y-61637830D01*
X95253903Y-61423663D01*
X95315063Y-61195408D01*
X95335659Y-60960000D01*
X95315063Y-60724592D01*
X95253903Y-60496337D01*
X95154035Y-60282171D01*
X95018495Y-60088599D01*
X95018494Y-60088597D01*
X94851402Y-59921506D01*
X94851396Y-59921501D01*
X94665842Y-59791575D01*
X94622217Y-59736998D01*
X94615023Y-59667500D01*
X94646546Y-59605145D01*
X94665842Y-59588425D01*
X94719909Y-59550567D01*
X94851401Y-59458495D01*
X95018495Y-59291401D01*
X95154035Y-59097830D01*
X95253903Y-58883663D01*
X95315063Y-58655408D01*
X95335659Y-58420000D01*
X95315063Y-58184592D01*
X95253903Y-57956337D01*
X95154035Y-57742171D01*
X95153652Y-57741623D01*
X95018494Y-57548597D01*
X94851402Y-57381506D01*
X94851396Y-57381501D01*
X94665842Y-57251575D01*
X94622217Y-57196998D01*
X94615023Y-57127500D01*
X94646546Y-57065145D01*
X94665842Y-57048425D01*
X94719909Y-57010567D01*
X94851401Y-56918495D01*
X95018495Y-56751401D01*
X95154035Y-56557830D01*
X95253903Y-56343663D01*
X95315063Y-56115408D01*
X95335659Y-55880000D01*
X95315063Y-55644592D01*
X95253903Y-55416337D01*
X95154035Y-55202171D01*
X95018495Y-55008599D01*
X95018494Y-55008597D01*
X94851402Y-54841506D01*
X94851396Y-54841501D01*
X94665842Y-54711575D01*
X94622217Y-54656998D01*
X94615023Y-54587500D01*
X94646546Y-54525145D01*
X94665842Y-54508425D01*
X94719910Y-54470566D01*
X94851401Y-54378495D01*
X95018495Y-54211401D01*
X95154035Y-54017830D01*
X95253903Y-53803663D01*
X95315063Y-53575408D01*
X95335659Y-53340000D01*
X95315063Y-53104592D01*
X95253903Y-52876337D01*
X95154035Y-52662171D01*
X95018495Y-52468599D01*
X95018494Y-52468597D01*
X94851402Y-52301506D01*
X94851396Y-52301501D01*
X94665842Y-52171575D01*
X94622217Y-52116998D01*
X94615023Y-52047500D01*
X94646546Y-51985145D01*
X94665842Y-51968425D01*
X94719909Y-51930567D01*
X94851401Y-51838495D01*
X95018495Y-51671401D01*
X95154035Y-51477830D01*
X95253903Y-51263663D01*
X95315063Y-51035408D01*
X95335659Y-50800000D01*
X95315063Y-50564592D01*
X95253903Y-50336337D01*
X95154035Y-50122171D01*
X95018495Y-49928599D01*
X95018494Y-49928597D01*
X94851402Y-49761506D01*
X94851396Y-49761501D01*
X94665842Y-49631575D01*
X94622217Y-49576998D01*
X94615023Y-49507500D01*
X94646546Y-49445145D01*
X94665842Y-49428425D01*
X94719909Y-49390567D01*
X94851401Y-49298495D01*
X95018495Y-49131401D01*
X95154035Y-48937830D01*
X95253903Y-48723663D01*
X95315063Y-48495408D01*
X95335659Y-48260000D01*
X95315063Y-48024592D01*
X95253903Y-47796337D01*
X95154035Y-47582171D01*
X95153652Y-47581623D01*
X95018494Y-47388597D01*
X94851402Y-47221506D01*
X94851396Y-47221501D01*
X94665842Y-47091575D01*
X94622217Y-47036998D01*
X94615023Y-46967500D01*
X94646546Y-46905145D01*
X94665842Y-46888425D01*
X94766629Y-46817853D01*
X94851401Y-46758495D01*
X95018495Y-46591401D01*
X95154035Y-46397830D01*
X95253903Y-46183663D01*
X95315063Y-45955408D01*
X95335659Y-45720000D01*
X95315063Y-45484592D01*
X95253903Y-45256337D01*
X95154035Y-45042171D01*
X95018495Y-44848599D01*
X94896179Y-44726283D01*
X94862696Y-44664963D01*
X94867680Y-44595271D01*
X94909551Y-44539337D01*
X94940529Y-44522422D01*
X95072086Y-44473354D01*
X95072093Y-44473350D01*
X95187187Y-44387190D01*
X95187190Y-44387187D01*
X95273350Y-44272093D01*
X95273354Y-44272086D01*
X95323596Y-44137379D01*
X95323598Y-44137372D01*
X95329999Y-44077844D01*
X95330000Y-44077827D01*
X95330000Y-43430000D01*
X94413686Y-43430000D01*
X94439493Y-43389844D01*
X94480000Y-43251889D01*
X94480000Y-43108111D01*
X94439493Y-42970156D01*
X94413686Y-42930000D01*
X95330000Y-42930000D01*
X95330000Y-42282172D01*
X95329999Y-42282155D01*
X95323598Y-42222627D01*
X95323596Y-42222620D01*
X95273354Y-42087913D01*
X95273350Y-42087906D01*
X95187190Y-41972812D01*
X95187187Y-41972809D01*
X95072093Y-41886649D01*
X95072086Y-41886645D01*
X94937379Y-41836403D01*
X94937372Y-41836401D01*
X94877844Y-41830000D01*
X94230000Y-41830000D01*
X94230000Y-42744498D01*
X94122315Y-42695320D01*
X94015763Y-42680000D01*
X93944237Y-42680000D01*
X93837685Y-42695320D01*
X93730000Y-42744498D01*
X93730000Y-41830000D01*
X93082155Y-41830000D01*
X93022627Y-41836401D01*
X93022620Y-41836403D01*
X92887913Y-41886645D01*
X92887906Y-41886649D01*
X92772812Y-41972809D01*
X92772809Y-41972812D01*
X92686649Y-42087906D01*
X92686645Y-42087913D01*
X92636403Y-42222620D01*
X92636401Y-42222627D01*
X92630000Y-42282155D01*
X92630000Y-42930000D01*
X93546314Y-42930000D01*
X93520507Y-42970156D01*
X93480000Y-43108111D01*
X93480000Y-43251889D01*
X93520507Y-43389844D01*
X93546314Y-43430000D01*
X92630000Y-43430000D01*
X92630000Y-44077844D01*
X92636401Y-44137372D01*
X92636403Y-44137379D01*
X92686645Y-44272086D01*
X92686649Y-44272093D01*
X92772809Y-44387187D01*
X92772812Y-44387190D01*
X92887906Y-44473350D01*
X92887913Y-44473354D01*
X93019470Y-44522421D01*
X93075403Y-44564292D01*
X93099821Y-44629756D01*
X93084970Y-44698029D01*
X93063819Y-44726284D01*
X92941503Y-44848600D01*
X92805965Y-45042169D01*
X92805964Y-45042171D01*
X92706098Y-45256335D01*
X92706094Y-45256344D01*
X92644938Y-45484586D01*
X92644936Y-45484596D01*
X92624341Y-45719999D01*
X92624341Y-45720000D01*
X92644936Y-45955403D01*
X92644938Y-45955413D01*
X92706094Y-46183655D01*
X92706096Y-46183659D01*
X92706097Y-46183663D01*
X92805965Y-46397830D01*
X92805967Y-46397834D01*
X92941501Y-46591395D01*
X92941506Y-46591402D01*
X93108597Y-46758493D01*
X93108603Y-46758498D01*
X93294158Y-46888425D01*
X93337783Y-46943002D01*
X93344977Y-47012500D01*
X93313454Y-47074855D01*
X93294158Y-47091575D01*
X93108597Y-47221505D01*
X92941505Y-47388597D01*
X92805965Y-47582169D01*
X92805964Y-47582171D01*
X92706098Y-47796335D01*
X92706094Y-47796344D01*
X92644938Y-48024586D01*
X92644936Y-48024596D01*
X92624341Y-48259999D01*
X92624341Y-48260000D01*
X92644936Y-48495403D01*
X92644938Y-48495413D01*
X92706094Y-48723655D01*
X92706096Y-48723659D01*
X92706097Y-48723663D01*
X92777497Y-48876781D01*
X92805965Y-48937830D01*
X92805967Y-48937834D01*
X92941501Y-49131395D01*
X92941506Y-49131402D01*
X93108597Y-49298493D01*
X93108603Y-49298498D01*
X93294158Y-49428425D01*
X93337783Y-49483002D01*
X93344977Y-49552500D01*
X93313454Y-49614855D01*
X93294158Y-49631575D01*
X93108597Y-49761505D01*
X92941505Y-49928597D01*
X92805965Y-50122169D01*
X92805964Y-50122171D01*
X92706098Y-50336335D01*
X92706094Y-50336344D01*
X92644938Y-50564586D01*
X92644936Y-50564596D01*
X92624341Y-50799999D01*
X92624341Y-50800000D01*
X92644937Y-51035408D01*
X92671855Y-51135873D01*
X92670192Y-51205723D01*
X92639761Y-51255646D01*
X82792818Y-61102589D01*
X82731495Y-61136074D01*
X82661803Y-61131090D01*
X82605870Y-61089218D01*
X82581453Y-61023754D01*
X82581608Y-61004109D01*
X82585468Y-60960000D01*
X82565635Y-60733308D01*
X82506739Y-60513504D01*
X82410568Y-60307266D01*
X82280047Y-60120861D01*
X82280045Y-60120858D01*
X82119141Y-59959954D01*
X81932734Y-59829432D01*
X81932728Y-59829429D01*
X81874725Y-59802382D01*
X81822285Y-59756210D01*
X81803133Y-59689017D01*
X81823348Y-59622135D01*
X81874725Y-59577618D01*
X81932734Y-59550568D01*
X82119139Y-59420047D01*
X82280047Y-59259139D01*
X82410568Y-59072734D01*
X82506739Y-58866496D01*
X82565635Y-58646692D01*
X82585468Y-58420000D01*
X82565635Y-58193308D01*
X82506739Y-57973504D01*
X82410568Y-57767266D01*
X82280047Y-57580861D01*
X82280045Y-57580858D01*
X82119141Y-57419954D01*
X81932734Y-57289432D01*
X81932732Y-57289431D01*
X81921275Y-57284088D01*
X81874132Y-57262105D01*
X81821694Y-57215934D01*
X81802542Y-57148740D01*
X81822758Y-57081859D01*
X81874134Y-57037341D01*
X81932484Y-57010132D01*
X82118820Y-56879657D01*
X82279657Y-56718820D01*
X82410134Y-56532482D01*
X82506265Y-56326326D01*
X82506269Y-56326317D01*
X82558872Y-56130000D01*
X81713686Y-56130000D01*
X81739493Y-56089844D01*
X81780000Y-55951889D01*
X81780000Y-55808111D01*
X81739493Y-55670156D01*
X81713686Y-55630000D01*
X82558872Y-55630000D01*
X82558872Y-55629999D01*
X82506269Y-55433682D01*
X82506265Y-55433673D01*
X82410134Y-55227517D01*
X82279657Y-55041179D01*
X82118820Y-54880342D01*
X81932482Y-54749865D01*
X81874133Y-54722657D01*
X81821694Y-54676484D01*
X81802542Y-54609291D01*
X81822758Y-54542410D01*
X81874129Y-54497895D01*
X81932734Y-54470568D01*
X82119139Y-54340047D01*
X82280047Y-54179139D01*
X82410568Y-53992734D01*
X82506739Y-53786496D01*
X82565635Y-53566692D01*
X82585468Y-53340000D01*
X82565635Y-53113308D01*
X82506739Y-52893504D01*
X82410568Y-52687266D01*
X82280047Y-52500861D01*
X82280045Y-52500858D01*
X82119141Y-52339954D01*
X81932734Y-52209432D01*
X81932728Y-52209429D01*
X81874725Y-52182382D01*
X81822285Y-52136210D01*
X81803133Y-52069017D01*
X81823348Y-52002135D01*
X81874725Y-51957618D01*
X81932734Y-51930568D01*
X82119139Y-51800047D01*
X82280047Y-51639139D01*
X82410568Y-51452734D01*
X82506739Y-51246496D01*
X82565635Y-51026692D01*
X82585468Y-50800000D01*
X82565635Y-50573308D01*
X82506739Y-50353504D01*
X82410568Y-50147266D01*
X82280047Y-49960861D01*
X82280045Y-49960858D01*
X82119141Y-49799954D01*
X81932734Y-49669432D01*
X81932728Y-49669429D01*
X81874725Y-49642382D01*
X81822285Y-49596210D01*
X81803133Y-49529017D01*
X81823348Y-49462135D01*
X81874725Y-49417618D01*
X81932734Y-49390568D01*
X82119139Y-49260047D01*
X82280047Y-49099139D01*
X82392613Y-48938377D01*
X82447189Y-48894752D01*
X82494188Y-48885500D01*
X83749153Y-48885500D01*
X83772385Y-48887696D01*
X83773989Y-48888001D01*
X83780412Y-48889227D01*
X83780413Y-48889226D01*
X83780414Y-48889227D01*
X83835759Y-48885745D01*
X83843545Y-48885500D01*
X83859342Y-48885500D01*
X83859350Y-48885500D01*
X83875071Y-48883513D01*
X83882735Y-48882789D01*
X83938138Y-48879304D01*
X83945905Y-48876780D01*
X83968680Y-48871688D01*
X83976792Y-48870664D01*
X84028396Y-48850231D01*
X84035671Y-48847612D01*
X84088441Y-48830467D01*
X84095337Y-48826090D01*
X84116133Y-48815494D01*
X84123732Y-48812486D01*
X84168631Y-48779864D01*
X84175026Y-48775517D01*
X84221877Y-48745786D01*
X84227466Y-48739833D01*
X84244979Y-48724394D01*
X84251587Y-48719594D01*
X84286954Y-48676840D01*
X84292078Y-48671029D01*
X84330062Y-48630582D01*
X84333998Y-48623421D01*
X84347119Y-48604114D01*
X84352324Y-48597823D01*
X84375939Y-48547638D01*
X84379467Y-48540711D01*
X84406197Y-48492092D01*
X84408227Y-48484181D01*
X84416135Y-48462218D01*
X84419614Y-48454826D01*
X84430010Y-48400325D01*
X84431697Y-48392775D01*
X84445500Y-48339019D01*
X84445500Y-48330844D01*
X84447697Y-48307606D01*
X84449227Y-48299586D01*
X84445745Y-48244241D01*
X84445500Y-48236455D01*
X84445500Y-43250844D01*
X84447697Y-43227606D01*
X84449227Y-43219586D01*
X84445745Y-43164241D01*
X84445500Y-43156455D01*
X84445500Y-43140650D01*
X84445499Y-43140646D01*
X84445470Y-43140414D01*
X84443516Y-43124951D01*
X84442788Y-43117260D01*
X84439304Y-43061862D01*
X84436779Y-43054092D01*
X84431687Y-43031314D01*
X84430664Y-43023208D01*
X84410233Y-42971606D01*
X84407608Y-42964315D01*
X84390467Y-42911559D01*
X84386089Y-42904661D01*
X84375495Y-42883868D01*
X84372486Y-42876268D01*
X84372484Y-42876265D01*
X84372483Y-42876263D01*
X84352821Y-42849202D01*
X84339870Y-42831377D01*
X84335501Y-42824947D01*
X84305785Y-42778122D01*
X84299834Y-42772534D01*
X84284398Y-42755025D01*
X84279594Y-42748413D01*
X84279591Y-42748411D01*
X84279591Y-42748410D01*
X84236862Y-42713062D01*
X84231018Y-42707910D01*
X84190584Y-42669940D01*
X84190577Y-42669934D01*
X84183415Y-42665997D01*
X84164114Y-42652880D01*
X84157824Y-42647677D01*
X84157823Y-42647676D01*
X84107620Y-42624052D01*
X84100720Y-42620536D01*
X84052092Y-42593803D01*
X84052089Y-42593802D01*
X84052085Y-42593800D01*
X84044174Y-42591769D01*
X84022222Y-42583866D01*
X84014825Y-42580385D01*
X84014821Y-42580384D01*
X83960356Y-42569994D01*
X83952758Y-42568296D01*
X83899023Y-42554500D01*
X83899019Y-42554500D01*
X83890847Y-42554500D01*
X83867615Y-42552304D01*
X83859588Y-42550773D01*
X83859585Y-42550772D01*
X83804241Y-42554255D01*
X83796455Y-42554500D01*
X74409500Y-42554500D01*
X74342461Y-42534815D01*
X74296706Y-42482011D01*
X74285500Y-42430500D01*
X74285500Y-42114499D01*
X74305185Y-42047460D01*
X74357989Y-42001705D01*
X74409500Y-41990499D01*
X74557871Y-41990499D01*
X74557872Y-41990499D01*
X74617483Y-41984091D01*
X74752331Y-41933796D01*
X74867546Y-41847546D01*
X74953796Y-41732331D01*
X75002810Y-41600916D01*
X75044681Y-41544984D01*
X75110145Y-41520566D01*
X75178418Y-41535417D01*
X75206673Y-41556569D01*
X75328599Y-41678495D01*
X75425384Y-41746265D01*
X75522165Y-41814032D01*
X75522167Y-41814033D01*
X75522170Y-41814035D01*
X75736337Y-41913903D01*
X75964592Y-41975063D01*
X76141034Y-41990500D01*
X76199999Y-41995659D01*
X76200000Y-41995659D01*
X76200001Y-41995659D01*
X76258966Y-41990500D01*
X76435408Y-41975063D01*
X76663663Y-41913903D01*
X76877830Y-41814035D01*
X77071401Y-41678495D01*
X77238495Y-41511401D01*
X77374035Y-41317830D01*
X77473903Y-41103663D01*
X77535063Y-40875408D01*
X77555659Y-40640000D01*
X77535063Y-40404592D01*
X77473903Y-40176337D01*
X77374035Y-39962171D01*
X77238495Y-39768599D01*
X77238494Y-39768597D01*
X77071402Y-39601506D01*
X77071395Y-39601501D01*
X76877834Y-39465967D01*
X76877830Y-39465965D01*
X76877828Y-39465964D01*
X76663663Y-39366097D01*
X76663659Y-39366096D01*
X76663655Y-39366094D01*
X76435413Y-39304938D01*
X76435403Y-39304936D01*
X76200001Y-39284341D01*
X76199999Y-39284341D01*
X75964596Y-39304936D01*
X75964586Y-39304938D01*
X75736344Y-39366094D01*
X75736335Y-39366098D01*
X75522171Y-39465964D01*
X75522169Y-39465965D01*
X75328600Y-39601503D01*
X75206673Y-39723430D01*
X75145350Y-39756914D01*
X75075658Y-39751930D01*
X75019725Y-39710058D01*
X75002810Y-39679081D01*
X74953797Y-39547671D01*
X74953793Y-39547664D01*
X74867547Y-39432455D01*
X74867544Y-39432452D01*
X74752335Y-39346206D01*
X74752328Y-39346202D01*
X74617482Y-39295908D01*
X74617483Y-39295908D01*
X74557883Y-39289501D01*
X74557881Y-39289500D01*
X74557873Y-39289500D01*
X74557864Y-39289500D01*
X72762129Y-39289500D01*
X72762123Y-39289501D01*
X72702516Y-39295908D01*
X72567671Y-39346202D01*
X72567664Y-39346206D01*
X72452455Y-39432452D01*
X72452452Y-39432455D01*
X72366206Y-39547664D01*
X72366202Y-39547671D01*
X72315908Y-39682517D01*
X72309501Y-39742116D01*
X72309500Y-39742135D01*
X72309500Y-39890500D01*
X72289815Y-39957539D01*
X72237011Y-40003294D01*
X72185500Y-40014500D01*
X71202737Y-40014500D01*
X71187120Y-40012776D01*
X71187093Y-40013062D01*
X71179331Y-40012327D01*
X71112144Y-40014439D01*
X71108250Y-40014500D01*
X71080650Y-40014500D01*
X71076962Y-40014965D01*
X71076649Y-40015005D01*
X71065031Y-40015918D01*
X71021373Y-40017290D01*
X71021372Y-40017290D01*
X71002129Y-40022881D01*
X70983079Y-40026825D01*
X70963211Y-40029334D01*
X70963210Y-40029335D01*
X70922600Y-40045413D01*
X70911553Y-40049195D01*
X70869610Y-40061381D01*
X70869609Y-40061382D01*
X70852367Y-40071579D01*
X70834899Y-40080137D01*
X70816269Y-40087513D01*
X70816266Y-40087515D01*
X70780939Y-40113181D01*
X70771180Y-40119592D01*
X70733579Y-40141830D01*
X70719408Y-40156000D01*
X70704623Y-40168628D01*
X70688412Y-40180407D01*
X70660571Y-40214059D01*
X70652711Y-40222696D01*
X58036208Y-52839199D01*
X58023951Y-52849020D01*
X58024134Y-52849241D01*
X58018122Y-52854214D01*
X57972098Y-52903223D01*
X57969391Y-52906016D01*
X57949889Y-52925517D01*
X57949875Y-52925534D01*
X57947407Y-52928715D01*
X57939843Y-52937570D01*
X57909937Y-52969418D01*
X57909936Y-52969420D01*
X57900284Y-52986976D01*
X57889610Y-53003226D01*
X57877329Y-53019061D01*
X57877324Y-53019068D01*
X57859975Y-53059158D01*
X57854838Y-53069644D01*
X57833803Y-53107906D01*
X57828822Y-53127307D01*
X57822521Y-53145710D01*
X57814562Y-53164102D01*
X57814561Y-53164105D01*
X57807728Y-53207243D01*
X57805360Y-53218674D01*
X57794501Y-53260971D01*
X57794500Y-53260982D01*
X57794500Y-53281016D01*
X57792973Y-53300415D01*
X57789840Y-53320194D01*
X57789840Y-53320195D01*
X57793950Y-53363674D01*
X57794500Y-53375343D01*
X57794500Y-54405500D01*
X57774815Y-54472539D01*
X57722011Y-54518294D01*
X57670501Y-54529500D01*
X57522130Y-54529500D01*
X57522123Y-54529501D01*
X57462516Y-54535908D01*
X57327671Y-54586202D01*
X57327664Y-54586206D01*
X57212455Y-54672452D01*
X57212452Y-54672455D01*
X57126206Y-54787664D01*
X57126202Y-54787671D01*
X57075908Y-54922517D01*
X57069501Y-54982116D01*
X57069501Y-54982123D01*
X57069500Y-54982135D01*
X57069500Y-56777870D01*
X57069501Y-56777876D01*
X57075908Y-56837483D01*
X57126202Y-56972328D01*
X57126206Y-56972335D01*
X57212452Y-57087544D01*
X57212455Y-57087547D01*
X57327664Y-57173793D01*
X57327671Y-57173797D01*
X57459081Y-57222810D01*
X57515015Y-57264681D01*
X57539432Y-57330145D01*
X57524580Y-57398418D01*
X57503430Y-57426673D01*
X57381503Y-57548600D01*
X57245965Y-57742169D01*
X57245964Y-57742171D01*
X57146098Y-57956335D01*
X57146094Y-57956344D01*
X57084938Y-58184586D01*
X57084936Y-58184596D01*
X57064341Y-58419999D01*
X57064341Y-58420000D01*
X57084936Y-58655403D01*
X57084938Y-58655413D01*
X57146094Y-58883655D01*
X57146096Y-58883659D01*
X57146097Y-58883663D01*
X57222234Y-59046939D01*
X57245965Y-59097830D01*
X57245967Y-59097834D01*
X57354281Y-59252521D01*
X57381501Y-59291396D01*
X57381506Y-59291402D01*
X57548597Y-59458493D01*
X57548603Y-59458498D01*
X57734158Y-59588425D01*
X57777783Y-59643002D01*
X57784977Y-59712500D01*
X57753454Y-59774855D01*
X57734158Y-59791575D01*
X57548597Y-59921505D01*
X57381505Y-60088597D01*
X57245965Y-60282169D01*
X57245964Y-60282171D01*
X57146098Y-60496335D01*
X57146094Y-60496344D01*
X57084938Y-60724586D01*
X57084936Y-60724596D01*
X57064341Y-60959999D01*
X57064341Y-60960000D01*
X57084936Y-61195403D01*
X57084938Y-61195413D01*
X57146094Y-61423655D01*
X57146096Y-61423659D01*
X57146097Y-61423663D01*
X57234262Y-61612732D01*
X57245965Y-61637830D01*
X57245967Y-61637834D01*
X57381501Y-61831395D01*
X57381506Y-61831402D01*
X57548597Y-61998493D01*
X57548603Y-61998498D01*
X57734158Y-62128425D01*
X57777783Y-62183002D01*
X57784977Y-62252500D01*
X57753454Y-62314855D01*
X57734158Y-62331575D01*
X57548597Y-62461505D01*
X57381505Y-62628597D01*
X57245965Y-62822169D01*
X57245964Y-62822171D01*
X57146098Y-63036335D01*
X57146094Y-63036344D01*
X57084938Y-63264586D01*
X57084936Y-63264596D01*
X57064341Y-63499999D01*
X57064341Y-63500000D01*
X57084936Y-63735403D01*
X57084938Y-63735413D01*
X57146094Y-63963655D01*
X57146096Y-63963659D01*
X57146097Y-63963663D01*
X57234262Y-64152732D01*
X57245965Y-64177830D01*
X57245967Y-64177834D01*
X57381501Y-64371395D01*
X57381506Y-64371402D01*
X57548597Y-64538493D01*
X57548603Y-64538498D01*
X57734158Y-64668425D01*
X57777783Y-64723002D01*
X57784977Y-64792500D01*
X57753454Y-64854855D01*
X57734158Y-64871575D01*
X57548597Y-65001505D01*
X57381505Y-65168597D01*
X57245965Y-65362169D01*
X57245964Y-65362171D01*
X57146098Y-65576335D01*
X57146094Y-65576344D01*
X57084938Y-65804586D01*
X57084936Y-65804596D01*
X57064341Y-66039999D01*
X57064341Y-66040000D01*
X57084936Y-66275403D01*
X57084938Y-66275413D01*
X57146094Y-66503655D01*
X57146096Y-66503659D01*
X57146097Y-66503663D01*
X57221820Y-66666050D01*
X57245965Y-66717830D01*
X57245967Y-66717834D01*
X57381501Y-66911395D01*
X57381506Y-66911402D01*
X57548597Y-67078493D01*
X57548603Y-67078498D01*
X57734158Y-67208425D01*
X57777783Y-67263002D01*
X57784977Y-67332500D01*
X57753454Y-67394855D01*
X57734158Y-67411575D01*
X57548597Y-67541505D01*
X57381505Y-67708597D01*
X57245965Y-67902169D01*
X57245964Y-67902171D01*
X57146098Y-68116335D01*
X57146094Y-68116344D01*
X57084938Y-68344586D01*
X57084936Y-68344596D01*
X57064341Y-68579999D01*
X57064341Y-68580000D01*
X57084936Y-68815403D01*
X57084938Y-68815413D01*
X57146094Y-69043655D01*
X57146096Y-69043659D01*
X57146097Y-69043663D01*
X57216498Y-69194638D01*
X57245965Y-69257830D01*
X57245967Y-69257834D01*
X57381501Y-69451395D01*
X57381506Y-69451402D01*
X57548597Y-69618493D01*
X57548603Y-69618498D01*
X57734158Y-69748425D01*
X57777783Y-69803002D01*
X57784977Y-69872500D01*
X57753454Y-69934855D01*
X57734158Y-69951575D01*
X57548597Y-70081505D01*
X57381505Y-70248597D01*
X57245965Y-70442169D01*
X57245964Y-70442171D01*
X57146098Y-70656335D01*
X57146094Y-70656344D01*
X57084938Y-70884586D01*
X57084936Y-70884596D01*
X57064341Y-71119999D01*
X57064341Y-71120000D01*
X55880500Y-71120000D01*
X55880500Y-38224500D01*
X55900185Y-38157461D01*
X55952989Y-38111706D01*
X56004500Y-38100500D01*
X96395500Y-38100500D01*
X96462539Y-38120185D01*
G37*
G04 #@! TD.AperFunction*
G04 #@! TD*
M02*
